<svg width="24" height="24" viewBox="0 0 24 24" fill="none" xmlns="http://www.w3.org/2000/svg">
<mask id="mask0_12_1486" style="mask-type:alpha" maskUnits="userSpaceOnUse" x="0" y="0" width="24" height="24">
<rect width="24" height="24" fill="#D9D9D9"/>
</mask>
<g mask="url(#mask0_12_1486)">
<path d="M19.95 21C17.8667 21 15.8042 20.55 13.7625 19.65C11.7208 18.75 9.86667 17.4667 8.2 15.8C6.53333 14.1333 5.25 12.2833 4.35 10.25C3.45 8.21667 3 6.15 3 4.05V3H8.9L9.825 8.025L6.975 10.9C7.34167 11.55 7.75 12.1667 8.2 12.75C8.65 13.3333 9.13333 13.875 9.65 14.375C10.1333 14.8583 10.6625 15.3208 11.2375 15.7625C11.8125 16.2042 12.4333 16.6167 13.1 17L16 14.1L21 15.125V21H19.95ZM6.025 9L7.675 7.35L7.25 5H5.025C5.10833 5.75 5.23333 6.45417 5.4 7.1125C5.56667 7.77083 5.775 8.4 6.025 9ZM14.975 17.95C15.6417 18.2333 16.3125 18.4583 16.9875 18.625C17.6625 18.7917 18.3333 18.9 19 18.95V16.75L16.65 16.275L14.975 17.95Z" fill="#EBEBEB"/>
</g>
</svg>
