<svg width="60" height="60" viewBox="0 0 60 60" fill="none" xmlns="http://www.w3.org/2000/svg">
<mask id="mask0_52_94" style="mask-type:alpha" maskUnits="userSpaceOnUse" x="0" y="0" width="60" height="60">
<rect width="60" height="60" fill="#D9D9D9"/>
</mask>
<g mask="url(#mask0_52_94)">
<path d="M28.125 33.75C29.7083 33.75 31.0417 33.2083 32.125 32.125C33.2083 31.0417 33.75 29.7083 33.75 28.125C33.75 26.5417 33.2083 25.2083 32.125 24.125C31.0417 23.0417 29.7083 22.5 28.125 22.5C26.5417 22.5 25.2083 23.0417 24.125 24.125C23.0417 25.2083 22.5 26.5417 22.5 28.125C22.5 29.7083 23.0417 31.0417 24.125 32.125C25.2083 33.2083 26.5417 33.75 28.125 33.75ZM40.1875 43.75L33.625 37.1875C32.7917 37.7292 31.9062 38.125 30.9688 38.375C30.0312 38.625 29.0833 38.75 28.125 38.75C25.1667 38.75 22.6562 37.7188 20.5938 35.6562C18.5313 33.5938 17.5 31.0833 17.5 28.125C17.5 25.1667 18.5313 22.6562 20.5938 20.5938C22.6562 18.5313 25.1667 17.5 28.125 17.5C31.0833 17.5 33.5938 18.5313 35.6562 20.5938C37.7188 22.6562 38.75 25.1667 38.75 28.125C38.75 29.0833 38.6146 30.0312 38.3438 30.9688C38.0729 31.9062 37.6667 32.7917 37.125 33.625L43.75 40.25L40.1875 43.75ZM7.5 52.5V37.5H12.5V47.5H22.5V52.5H7.5ZM37.5 52.5V47.5H47.5V37.5H52.5V52.5H37.5ZM7.5 22.5V7.5H22.5V12.5H12.5V22.5H7.5ZM47.5 22.5V12.5H37.5V7.5H52.5V22.5H47.5Z" fill="white"/>
</g>
</svg>
