<svg width="297" height="300" viewBox="0 0 297 300" fill="none" xmlns="http://www.w3.org/2000/svg">
<path d="M51.9744 37.3951C49.7622 34.8851 62.3548 27.5252 69.9699 23.2284C74.6921 20.5483 75.1176 20.9311 79.7122 23.1859C94.8573 30.5883 108.088 44.3296 115.023 54.5823C116.469 56.752 115.746 58.5813 112.768 58.5813L85.9659 58.6664C84.9874 58.6664 84.094 58.1559 83.4559 57.3901C81.4138 54.8376 75.2877 48.9667 72.3523 47.2224C59.3343 39.5222 53.8037 39.5222 51.9744 37.3951Z" fill="black"/>
<path d="M93.1986 67.9834H117.576C118.894 67.9834 120.128 68.6641 120.639 69.8978C121.789 72.4526 122.67 75.5522 123.355 79.009C126.195 96.9592 159.282 96.9567 184.358 96.9548L185.035 96.9548L185.388 96.9548C197.428 96.9548 197.938 100.911 200.491 107.165C201.086 108.654 199.215 109.675 197.938 109.675L121.787 109.718H94.4323C92.5179 109.718 90.9439 107.931 91.6245 106.016C95.2407 95.8913 96.1766 83.1286 91.2416 71.3443C89.8377 67.9834 91.6245 67.9834 93.1986 67.9834H93.1986Z" fill="black"/>
<path fill-rule="evenodd" clip-rule="evenodd" d="M44.5298 128.181C66.1414 128.181 83.669 110.653 83.669 89.0415C83.669 67.4299 66.1414 49.9023 44.5298 49.9023C22.9182 49.9023 5.39062 67.4299 5.39062 89.0415C5.39062 110.653 22.8756 128.181 44.5298 128.181ZM44.5724 108.398C55.2931 108.398 64.0143 99.7197 64.0143 88.9564C64.0143 78.2357 56.0163 69.557 44.5724 69.557C33.8516 69.557 25.1304 78.2357 25.1304 88.9564C25.1304 99.7197 33.8516 108.398 44.5724 108.398Z" fill="black"/>
<path fill-rule="evenodd" clip-rule="evenodd" d="M87.4137 14.2095C85.712 14.9327 85.6269 16.3366 86.9882 16.9748C99.8361 22.9307 112.939 33.9493 120.554 43.3937C128.425 53.1785 135.104 56.0714 141.528 56.8372C147.952 57.6455 166.245 58.5814 176.668 58.5814H222.798C213.916 65.7571 208.235 76.7375 208.235 89.0418C208.235 110.653 225.72 128.181 247.374 128.181C268.985 128.181 286.513 110.653 286.513 89.0418C286.513 88.8759 286.512 88.7103 286.51 88.5449C286.539 88.4591 286.555 88.3686 286.555 88.2761C286.117 51.7562 255.301 44.4857 226.751 37.7498C222.042 36.639 217.395 35.5427 212.957 34.3321C201.033 31.0751 192.447 23.6511 184.587 16.8551C180.641 13.4429 176.877 10.1891 172.967 7.70049C165.096 2.68047 158.29 0.000287434 151.185 0.000287434C126.127 -0.0422551 110.387 4.63743 87.4137 14.2095ZM266.858 88.9567C266.858 99.72 258.137 108.399 247.416 108.399C236.696 108.399 227.974 99.72 228.017 88.9567C228.017 78.236 236.696 69.5573 247.416 69.5573C258.18 69.5573 266.858 78.236 266.858 88.9567Z" fill="black"/>
<path d="M10.6238 45.1378C-3.45784 39.4796 -2.35173 36.374 7.00763 35.906C27.896 34.8425 51.6348 37.0547 36.2769 42.2449C27.8535 45.0527 23.6843 50.3705 10.6238 45.1378Z" fill="black"/>
<path d="M248.382 209.895V161.65H261.554V168.808H261.962C262.507 167.538 263.278 166.313 264.276 165.134C265.292 163.955 266.58 162.993 268.14 162.249C269.719 161.487 271.606 161.106 273.801 161.106C276.704 161.106 279.417 161.868 281.939 163.392C284.479 164.916 286.529 167.266 288.089 170.441C289.65 173.616 290.43 177.662 290.43 182.579C290.43 187.314 289.677 191.279 288.171 194.472C286.683 197.665 284.669 200.06 282.129 201.657C279.607 203.254 276.804 204.052 273.72 204.052C271.615 204.052 269.791 203.707 268.249 203.018C266.707 202.328 265.41 201.421 264.357 200.296C263.323 199.171 262.525 197.965 261.962 196.677H261.69V209.895H248.382ZM261.418 182.552C261.418 184.802 261.718 186.761 262.316 188.43C262.933 190.1 263.813 191.397 264.956 192.322C266.117 193.229 267.505 193.683 269.12 193.683C270.753 193.683 272.141 193.229 273.284 192.322C274.427 191.397 275.289 190.1 275.87 188.43C276.468 186.761 276.768 184.802 276.768 182.552C276.768 180.302 276.468 178.351 275.87 176.7C275.289 175.049 274.427 173.77 273.284 172.863C272.159 171.956 270.771 171.502 269.12 171.502C267.487 171.502 266.099 171.947 264.956 172.836C263.813 173.725 262.933 174.995 262.316 176.646C261.718 178.297 261.418 180.266 261.418 182.552Z" fill="black"/>
<path d="M199.36 226.404V161.65H212.533V168.808H212.941C213.485 167.538 214.256 166.313 215.254 165.134C216.27 163.955 217.558 162.993 219.119 162.249C220.697 161.487 222.584 161.106 224.78 161.106C227.683 161.106 230.395 161.868 232.917 163.392C235.457 164.916 237.507 167.266 239.068 170.441C240.628 173.616 241.408 177.662 241.408 182.579C241.408 187.314 240.655 191.279 239.149 194.472C237.662 197.665 235.648 200.06 233.108 201.657C230.586 203.254 227.782 204.052 224.698 204.052C222.593 204.052 220.77 203.707 219.228 203.018C217.685 202.328 216.388 201.421 215.336 200.296C214.302 199.171 213.503 197.965 212.941 196.677H212.669V226.404H199.36ZM212.397 182.552C212.397 184.802 212.696 186.761 213.295 188.43C213.912 190.1 214.792 191.397 215.935 192.322C217.096 193.229 218.484 193.683 220.099 193.683C221.731 193.683 223.119 193.229 224.263 192.322C225.406 191.397 226.267 190.1 226.848 188.43C227.447 186.761 227.746 184.802 227.746 182.552C227.746 180.302 227.447 178.351 226.848 176.7C226.267 175.049 225.406 173.77 224.263 172.863C223.138 171.956 221.75 171.502 220.099 171.502C218.466 171.502 217.078 171.947 215.935 172.836C214.792 173.725 213.912 174.995 213.295 176.646C212.696 178.297 212.397 180.266 212.397 182.552Z" fill="black"/>
<path fill-rule="evenodd" clip-rule="evenodd" d="M152.291 203.453H137.812L156.618 147.716H174.553L193.359 203.453H178.881L175.206 191.751H155.958L152.291 203.453ZM165.355 161.759H165.79L171.994 181.518H159.164L165.355 161.759Z" fill="black"/>
<path d="M111.046 203.454V161.651H123.973V169.271H124.408C125.17 166.513 126.413 164.463 128.137 163.12C129.86 161.759 131.865 161.079 134.151 161.079C134.768 161.079 135.403 161.124 136.057 161.215C136.71 161.288 137.318 161.406 137.88 161.569V173.136C137.245 172.918 136.41 172.745 135.376 172.618C134.36 172.491 133.453 172.428 132.655 172.428C131.076 172.428 129.652 172.782 128.382 173.489C127.13 174.179 126.141 175.15 125.415 176.401C124.708 177.635 124.354 179.087 124.354 180.756V203.454H111.046Z" fill="black"/>
<path d="M77.9247 204.161C75.2576 204.161 72.8899 203.716 70.8215 202.827C68.7713 201.92 67.1474 200.559 65.9499 198.745C64.7706 196.912 64.1809 194.617 64.1809 191.859C64.1809 189.537 64.5891 187.578 65.4056 185.981C66.2221 184.384 67.347 183.087 68.7803 182.089C70.2137 181.091 71.8647 180.338 73.7335 179.83C75.6023 179.304 77.5981 178.95 79.7209 178.769C82.0978 178.551 84.0119 178.324 85.4634 178.088C86.9149 177.834 87.9672 177.481 88.6204 177.027C89.2917 176.555 89.6274 175.893 89.6274 175.04V174.904C89.6274 173.507 89.1466 172.428 88.185 171.666C87.2233 170.904 85.9261 170.523 84.2931 170.523C82.5332 170.523 81.118 170.904 80.0475 171.666C78.9771 172.428 78.2967 173.48 78.0064 174.823L65.7322 174.387C66.0951 171.847 67.0295 169.579 68.5354 167.583C70.0595 165.569 72.146 163.991 74.7949 162.848C77.4621 161.687 80.6644 161.106 84.402 161.106C87.0691 161.106 89.5276 161.423 91.7774 162.058C94.0272 162.675 95.9867 163.583 97.6559 164.78C99.3252 165.959 100.613 167.411 101.521 169.135C102.446 170.858 102.909 172.827 102.909 175.04V203.453H90.3894V197.629H90.0628C89.3189 199.044 88.3664 200.242 87.2052 201.222C86.0622 202.201 84.7105 202.936 83.1501 203.426C81.6079 203.916 79.8661 204.161 77.9247 204.161ZM82.0343 195.452C83.4676 195.452 84.7558 195.162 85.8989 194.581C87.0601 194 87.9854 193.202 88.6748 192.186C89.3643 191.152 89.709 189.954 89.709 188.594V184.62C89.328 184.82 88.8653 185.001 88.321 185.164C87.7949 185.328 87.2143 185.482 86.5792 185.627C85.9442 185.772 85.291 185.899 84.6197 186.008C83.9484 186.117 83.3043 186.217 82.6874 186.307C81.4355 186.507 80.365 186.816 79.476 187.233C78.6051 187.65 77.9338 188.194 77.4621 188.866C77.0085 189.519 76.7817 190.299 76.7817 191.206C76.7817 192.585 77.2716 193.638 78.2513 194.363C79.2492 195.089 80.5102 195.452 82.0343 195.452Z" fill="black"/>
<path d="M58.4323 167.911H44.8246C44.6431 166.514 44.2712 165.253 43.7087 164.128C43.1463 163.003 42.4024 162.041 41.4771 161.243C40.5517 160.445 39.454 159.837 38.184 159.42C36.9321 158.984 35.5441 158.766 34.02 158.766C31.3166 158.766 28.9852 159.429 27.0256 160.753C25.0843 162.078 23.5874 163.992 22.5351 166.496C21.5009 168.999 20.9838 172.029 20.9838 175.586C20.9838 179.287 21.51 182.39 22.5623 184.893C23.6328 187.379 25.1296 189.257 27.0529 190.527C28.9942 191.779 31.2894 192.405 33.9384 192.405C35.4262 192.405 36.7779 192.214 37.9935 191.833C39.2273 191.452 40.3068 190.899 41.2321 190.173C42.1756 189.429 42.9467 188.531 43.5454 187.479C44.1623 186.408 44.5887 185.202 44.8246 183.859L58.4323 183.941C58.1964 186.408 57.4798 188.84 56.2823 191.235C55.1029 193.629 53.4791 195.816 51.4107 197.793C49.3423 199.753 46.8204 201.313 43.8448 202.475C40.8874 203.636 37.4945 204.216 33.6662 204.216C28.6223 204.216 24.1045 203.11 20.1129 200.896C16.1395 198.664 13.0006 195.417 10.6964 191.153C8.39211 186.889 7.23999 181.7 7.23999 175.586C7.23999 169.453 8.41026 164.255 10.7508 159.991C13.0913 155.727 16.2574 152.489 20.249 150.275C24.2406 148.062 28.713 146.955 33.6662 146.955C37.0409 146.955 40.1617 147.427 43.0283 148.37C45.895 149.295 48.417 150.656 50.5942 152.452C52.7715 154.231 54.5405 156.417 55.9013 159.011C57.262 161.606 58.1057 164.572 58.4323 167.911Z" fill="black"/>
<path d="M274.679 239.721L258.04 260.905H257.192V220.001H238.358V298.883H257.192V281.123L261.004 276.508L275.103 298.883H296.865L275.009 265.507L296.017 239.721H274.679Z" fill="black"/>
<path d="M201.256 300C195.016 300 189.663 298.716 185.195 296.148C180.752 293.58 177.337 290.011 174.949 285.441C172.561 280.844 171.367 275.529 171.367 269.495C171.367 263.435 172.561 258.119 174.949 253.549C177.363 248.952 180.791 245.37 185.233 242.802C189.701 240.235 195.029 238.951 201.218 238.951C206.687 238.951 211.45 239.939 215.507 241.917C219.59 243.894 222.774 246.693 225.06 250.313C227.371 253.908 228.59 258.132 228.719 262.985H211.116C210.757 259.955 209.73 257.58 208.035 255.86C206.366 254.139 204.183 253.279 201.487 253.279C199.305 253.279 197.392 253.895 195.748 255.128C194.105 256.335 192.821 258.132 191.897 260.52C190.998 262.883 190.549 265.81 190.549 269.302C190.549 272.794 190.998 275.747 191.897 278.161C192.821 280.549 194.105 282.359 195.748 283.592C197.392 284.799 199.305 285.402 201.487 285.402C203.233 285.402 204.774 285.03 206.109 284.285C207.47 283.54 208.587 282.449 209.46 281.011C210.333 279.547 210.885 277.776 211.116 275.696H228.719C228.539 280.575 227.319 284.837 225.06 288.483C222.826 292.13 219.68 294.967 215.623 296.996C211.592 298.998 206.803 300 201.256 300Z" fill="black"/>
<path d="M126.765 299.884C122.99 299.884 119.639 299.255 116.712 297.997C113.81 296.713 111.512 294.787 109.817 292.22C108.148 289.626 107.314 286.378 107.314 282.475C107.314 279.188 107.892 276.415 109.047 274.155C110.203 271.895 111.795 270.06 113.823 268.647C115.852 267.235 118.188 266.169 120.833 265.45C123.478 264.706 126.303 264.205 129.307 263.948C132.671 263.64 135.38 263.319 137.434 262.985C139.488 262.626 140.977 262.125 141.902 261.483C142.852 260.815 143.327 259.878 143.327 258.671V258.479C143.327 256.502 142.647 254.974 141.286 253.895C139.925 252.817 138.089 252.278 135.778 252.278C133.287 252.278 131.284 252.817 129.769 253.895C128.254 254.974 127.291 256.463 126.88 258.363L109.509 257.747C110.023 254.152 111.345 250.942 113.477 248.118C115.633 245.268 118.586 243.034 122.335 241.416C126.11 239.772 130.642 238.951 135.932 238.951C139.706 238.951 143.186 239.4 146.37 240.299C149.554 241.172 152.327 242.456 154.689 244.151C157.052 245.82 158.875 247.874 160.159 250.313C161.468 252.753 162.123 255.539 162.123 258.671V298.883H144.405V290.64H143.943C142.891 292.643 141.542 294.338 139.899 295.725C138.281 297.111 136.368 298.151 134.16 298.844C131.977 299.538 129.512 299.884 126.765 299.884ZM132.581 287.559C134.609 287.559 136.433 287.148 138.05 286.326C139.694 285.505 141.003 284.375 141.979 282.937C142.955 281.473 143.443 279.779 143.443 277.853V272.229C142.903 272.512 142.249 272.769 141.478 273C140.734 273.231 139.912 273.449 139.013 273.654C138.114 273.86 137.19 274.04 136.24 274.194C135.29 274.348 134.378 274.489 133.505 274.617C131.733 274.9 130.218 275.336 128.96 275.927C127.728 276.518 126.778 277.288 126.11 278.238C125.468 279.162 125.147 280.266 125.147 281.55C125.147 283.502 125.84 284.991 127.227 286.018C128.639 287.045 130.424 287.559 132.581 287.559Z" fill="black"/>
<path d="M98.0992 220.001V298.883H79.2645V220.001H98.0992Z" fill="black"/>
<path d="M7.23877 298.882V220H40.1321C46.038 220 50.981 220.835 54.9611 222.504C58.9668 224.173 61.9711 226.509 63.974 229.514C66.0025 232.518 67.0168 235.997 67.0168 239.952C67.0168 242.956 66.3877 245.639 65.1295 248.002C63.8713 250.338 62.138 252.277 59.9297 253.818C57.7214 255.358 55.1665 256.437 52.2649 257.053V257.823C55.4489 257.978 58.3891 258.838 61.0852 260.404C63.8071 261.97 65.9897 264.153 67.6331 266.952C69.2765 269.725 70.0981 273.012 70.0981 276.812C70.0981 281.049 69.0197 284.837 66.8627 288.175C64.7058 291.487 61.5859 294.106 57.5032 296.032C53.4204 297.932 48.4646 298.882 42.6357 298.882H7.23877ZM26.3046 283.514H38.0907C42.2248 283.514 45.2677 282.731 47.2192 281.165C49.1964 279.598 50.185 277.416 50.185 274.617C50.185 272.588 49.7099 270.842 48.7599 269.379C47.8098 267.889 46.4617 266.747 44.7156 265.951C42.9695 265.129 40.8768 264.718 38.4374 264.718H26.3046V283.514ZM26.3046 252.431H36.8582C38.9381 252.431 40.7869 252.084 42.4046 251.391C44.0223 250.698 45.2805 249.696 46.1792 248.387C47.1036 247.077 47.5658 245.498 47.5658 243.649C47.5658 241.004 46.6286 238.925 44.7541 237.41C42.8796 235.895 40.3504 235.137 37.1663 235.137H26.3046V252.431Z" fill="black"/>
</svg>
