<svg width="84" height="30" viewBox="0 0 84 30" fill="none" xmlns="http://www.w3.org/2000/svg">
<path d="M83.9031 19V29H82.0031V27.5C81.5898 28.0333 81.0898 28.4533 80.5031 28.76C79.9165 29.0533 79.2898 29.2 78.6231 29.2C77.7431 29.2 76.9431 28.98 76.2231 28.54C75.5031 28.0867 74.9365 27.4667 74.5231 26.68C74.1098 25.8933 73.9031 25 73.9031 24C73.9031 23 74.1098 22.1067 74.5231 21.32C74.9365 20.5333 75.5031 19.92 76.2231 19.48C76.9431 19.0267 77.7431 18.8 78.6231 18.8C79.3165 18.8 79.9631 18.96 80.5631 19.28C81.1631 19.6 81.6765 20.0467 82.1031 20.62V19H83.9031ZM78.9431 27.44C79.5298 27.44 80.0631 27.2933 80.5431 27C81.0231 26.7067 81.3965 26.3 81.6631 25.78C81.9298 25.2467 82.0631 24.6533 82.0631 24C82.0631 23.3467 81.9298 22.76 81.6631 22.24C81.3965 21.7067 81.0231 21.2933 80.5431 21C80.0631 20.7067 79.5298 20.56 78.9431 20.56C78.3565 20.56 77.8298 20.7067 77.3631 21C76.8965 21.2933 76.5298 21.7067 76.2631 22.24C75.9965 22.76 75.8631 23.3467 75.8631 24C75.8631 24.6533 75.9965 25.2467 76.2631 25.78C76.5298 26.3 76.8965 26.7067 77.3631 27C77.8298 27.2933 78.3565 27.44 78.9431 27.44Z" fill="white"/>
<path d="M67.9372 24.9H66.1172V29H64.2172V14.9H66.1172V23.1H67.8972L70.9972 19H73.0972L69.3972 23.86L73.3372 29H71.0372L67.9372 24.9Z" fill="white"/>
<path d="M56.8356 18.8C57.8623 18.8 58.7556 19.02 59.5156 19.46C60.289 19.9 60.8823 20.5267 61.2956 21.34C61.709 22.14 61.9156 23.08 61.9156 24.16C61.9156 24.44 61.909 24.6467 61.8956 24.78H53.6956C53.829 25.5533 54.189 26.1933 54.7756 26.7C55.3756 27.1933 56.069 27.44 56.8556 27.44C58.149 27.44 59.069 26.9667 59.6156 26.02H61.5756C61.2556 26.9533 60.6623 27.72 59.7956 28.32C58.929 28.9067 57.949 29.2 56.8556 29.2C55.8823 29.2 55.0023 28.98 54.2156 28.54C53.429 28.0867 52.8156 27.4667 52.3756 26.68C51.9356 25.88 51.7156 24.9867 51.7156 24C51.7156 23.0133 51.9356 22.1267 52.3756 21.34C52.8156 20.54 53.4223 19.92 54.1956 19.48C54.9823 19.0267 55.8623 18.8 56.8356 18.8ZM56.7956 20.48C56.009 20.48 55.329 20.7267 54.7556 21.22C54.1956 21.7133 53.849 22.3467 53.7156 23.12H59.8556C59.7756 22.32 59.449 21.68 58.8756 21.2C58.3156 20.72 57.6223 20.48 56.7956 20.48Z" fill="white"/>
<path d="M47.8109 20.8V27.2H50.4109V29H45.9109V20.8H43.9109V19H45.9109V16.4H47.8109V19H50.6109V20.8H47.8109Z" fill="white"/>
<path d="M37.8364 29.2C36.8497 29.2 35.9497 28.9733 35.1364 28.52C34.3231 28.0533 33.6831 27.4267 33.2164 26.64C32.7497 25.84 32.5164 24.96 32.5164 24C32.5164 23.04 32.7497 22.1667 33.2164 21.38C33.6831 20.58 34.3231 19.9533 35.1364 19.5C35.9497 19.0333 36.8497 18.8 37.8364 18.8C38.8097 18.8 39.6964 19.0333 40.4964 19.5C41.3097 19.9533 41.9497 20.58 42.4164 21.38C42.8831 22.1667 43.1164 23.04 43.1164 24C43.1164 24.96 42.8831 25.84 42.4164 26.64C41.9497 27.4267 41.3097 28.0533 40.4964 28.52C39.6964 28.9733 38.8097 29.2 37.8364 29.2ZM37.8364 27.44C38.4497 27.44 39.0097 27.2933 39.5164 27C40.0231 26.6933 40.4231 26.28 40.7164 25.76C41.0097 25.2267 41.1564 24.64 41.1564 24C41.1564 23.36 41.0097 22.78 40.7164 22.26C40.4231 21.7267 40.0231 21.3133 39.5164 21.02C39.0097 20.7133 38.4497 20.56 37.8364 20.56C37.2097 20.56 36.6364 20.7133 36.1164 21.02C35.6097 21.3133 35.2097 21.7267 34.9164 22.26C34.6231 22.78 34.4764 23.36 34.4764 24C34.4764 24.64 34.6231 25.2267 34.9164 25.76C35.2097 26.28 35.6097 26.6933 36.1164 27C36.6364 27.2933 37.2097 27.44 37.8364 27.44Z" fill="white"/>
<path d="M28.6117 20.8V27.2H31.2117V29H26.7117V20.8H24.7117V19H26.7117V16.4H28.6117V19H31.4117V20.8H28.6117Z" fill="white"/>
<path d="M22.9047 19V29H13.9047V19H15.8047V27.2H21.0047V19H22.9047Z" fill="white"/>
<path d="M10.7 19V29H8.8V27.5C8.38667 28.0333 7.88667 28.4533 7.3 28.76C6.71333 29.0533 6.08667 29.2 5.42 29.2C4.54 29.2 3.74 28.98 3.02 28.54C2.3 28.0867 1.73333 27.4667 1.32 26.68C0.906667 25.8933 0.700001 25 0.700001 24C0.700001 23 0.906667 22.1067 1.32 21.32C1.73333 20.5333 2.3 19.92 3.02 19.48C3.74 19.0267 4.54 18.8 5.42 18.8C6.11333 18.8 6.76 18.96 7.36 19.28C7.96 19.6 8.47333 20.0467 8.9 20.62V19H10.7ZM5.74 27.44C6.32667 27.44 6.86 27.2933 7.34 27C7.82 26.7067 8.19333 26.3 8.46 25.78C8.72667 25.2467 8.86 24.6533 8.86 24C8.86 23.3467 8.72667 22.76 8.46 22.24C8.19333 21.7067 7.82 21.2933 7.34 21C6.86 20.7067 6.32667 20.56 5.74 20.56C5.15333 20.56 4.62667 20.7067 4.16 21C3.69333 21.2933 3.32667 21.7067 3.06 22.24C2.79333 22.76 2.66 23.3467 2.66 24C2.66 24.6533 2.79333 25.2467 3.06 25.78C3.32667 26.3 3.69333 26.7067 4.16 27C4.62667 27.2933 5.15333 27.44 5.74 27.44Z" fill="white"/>
<path d="M50.6063 0.799988C51.4196 0.799988 52.1463 0.973321 52.7863 1.31999C53.4396 1.66665 53.9529 2.19332 54.3263 2.89999C54.7129 3.59332 54.9062 4.44666 54.9062 5.45999V11H53.0062V5.49999C53.0062 4.61999 52.7462 3.91999 52.2262 3.39999C51.7062 2.87999 51.0529 2.61999 50.2663 2.61999C49.6929 2.61999 49.1862 2.75999 48.7463 3.03999C48.3196 3.30665 47.9863 3.67332 47.7463 4.13999C47.5196 4.60665 47.4062 5.11332 47.4062 5.65999V11H45.5062V0.999989H47.3063V2.59999C47.6796 2.05332 48.1529 1.61999 48.7262 1.29999C49.3129 0.966654 49.9396 0.799988 50.6063 0.799988Z" fill="white"/>
<path d="M38.1247 0.799988C39.1514 0.799988 40.0447 1.01999 40.8047 1.45999C41.578 1.89999 42.1714 2.52666 42.5847 3.33999C42.998 4.13999 43.2047 5.07999 43.2047 6.15999C43.2047 6.43999 43.198 6.64666 43.1847 6.77999H34.9847C35.118 7.55332 35.478 8.19332 36.0647 8.69999C36.6647 9.19332 37.358 9.43999 38.1447 9.43999C39.438 9.43999 40.358 8.96665 40.9047 8.01999H42.8647C42.5447 8.95332 41.9514 9.71999 41.0847 10.32C40.218 10.9067 39.238 11.2 38.1447 11.2C37.1714 11.2 36.2914 10.98 35.5047 10.54C34.718 10.0867 34.1047 9.46666 33.6647 8.67999C33.2247 7.87999 33.0047 6.98666 33.0047 5.99999C33.0047 5.01332 33.2247 4.12666 33.6647 3.33999C34.1047 2.53999 34.7114 1.91999 35.4847 1.47999C36.2714 1.02665 37.1514 0.799988 38.1247 0.799988ZM38.0847 2.47999C37.298 2.47999 36.618 2.72665 36.0447 3.21999C35.4847 3.71332 35.138 4.34665 35.0047 5.11999H41.1447C41.0647 4.31999 40.738 3.67999 40.1647 3.19999C39.6047 2.71999 38.9114 2.47999 38.0847 2.47999Z" fill="white"/>
<path d="M26.4255 0.799988C27.4521 0.799988 28.3455 1.01999 29.1055 1.45999C29.8788 1.89999 30.4721 2.52666 30.8855 3.33999C31.2988 4.13999 31.5055 5.07999 31.5055 6.15999C31.5055 6.43999 31.4988 6.64666 31.4855 6.77999H23.2855C23.4188 7.55332 23.7788 8.19332 24.3655 8.69999C24.9655 9.19332 25.6588 9.43999 26.4455 9.43999C27.7388 9.43999 28.6588 8.96665 29.2055 8.01999H31.1655C30.8455 8.95332 30.2521 9.71999 29.3855 10.32C28.5188 10.9067 27.5388 11.2 26.4455 11.2C25.4721 11.2 24.5921 10.98 23.8055 10.54C23.0188 10.0867 22.4055 9.46666 21.9655 8.67999C21.5255 7.87999 21.3055 6.98666 21.3055 5.99999C21.3055 5.01332 21.5255 4.12666 21.9655 3.33999C22.4055 2.53999 23.0121 1.91999 23.7855 1.47999C24.5721 1.02665 25.4521 0.799988 26.4255 0.799988ZM26.3855 2.47999C25.5988 2.47999 24.9188 2.72665 24.3455 3.21999C23.7855 3.71332 23.4388 4.34665 23.3055 5.11999H29.4455C29.3655 4.31999 29.0388 3.67999 28.4655 3.19999C27.9055 2.71999 27.2121 2.47999 26.3855 2.47999Z" fill="white"/>
<path d="M20.9047 2.8H15.8047V11H13.9047V1H20.9047V2.8Z" fill="white"/>
<path d="M10.7 0.999989V14.4H2V12.6H8.8V9.23999C8.37333 9.75999 7.86 10.1667 7.26 10.46C6.66 10.7533 6.01333 10.9 5.32 10.9C4.45333 10.9 3.66667 10.68 2.96 10.24C2.25333 9.79999 1.7 9.19332 1.3 8.41999C0.900001 7.64666 0.700001 6.78666 0.700001 5.83999C0.700001 4.90666 0.900001 4.05332 1.3 3.27999C1.71333 2.50665 2.26667 1.89999 2.96 1.45999C3.66667 1.01999 4.45333 0.799988 5.32 0.799988C6.04 0.799988 6.70667 0.959988 7.32 1.27999C7.94667 1.58666 8.47333 2.01999 8.9 2.57999V0.999989H10.7ZM5.74 9.23999C6.32667 9.23999 6.86 9.09999 7.34 8.81999C7.82 8.52665 8.19333 8.12666 8.46 7.61999C8.72667 7.11332 8.86 6.53999 8.86 5.89999C8.86 5.25999 8.72667 4.68665 8.46 4.17999C8.19333 3.67332 7.82 3.27999 7.34 2.99999C6.86 2.70666 6.32667 2.55999 5.74 2.55999C5.15333 2.55999 4.62667 2.70666 4.16 2.99999C3.69333 3.27999 3.32667 3.67332 3.06 4.17999C2.79333 4.68665 2.66 5.25999 2.66 5.89999C2.66 6.53999 2.79333 7.11332 3.06 7.61999C3.32667 8.12666 3.69333 8.52665 4.16 8.81999C4.62667 9.09999 5.15333 9.23999 5.74 9.23999Z" fill="white"/>
</svg>
