<svg width="84" height="30" viewBox="0 0 84 30" fill="none" xmlns="http://www.w3.org/2000/svg">
<mask id="path-1-outside-1_241_7" maskUnits="userSpaceOnUse" x="0" y="0" width="85" height="30" fill="black">
<rect fill="white" width="85" height="30"/>
<path d="M10.7 1V14.4H2V12.6H8.8V9.24C8.37333 9.76 7.86 10.1667 7.26 10.46C6.66 10.7533 6.01333 10.9 5.32 10.9C4.45333 10.9 3.66667 10.68 2.96 10.24C2.25333 9.8 1.7 9.19333 1.3 8.42C0.9 7.64667 0.7 6.78667 0.7 5.84C0.7 4.90667 0.9 4.05333 1.3 3.28C1.71333 2.50667 2.26667 1.9 2.96 1.46C3.66667 1.02 4.45333 0.799999 5.32 0.799999C6.04 0.799999 6.70667 0.959999 7.32 1.28C7.94667 1.58667 8.47333 2.02 8.9 2.58V1H10.7ZM5.74 9.24C6.32667 9.24 6.86 9.1 7.34 8.82C7.82 8.52667 8.19333 8.12667 8.46 7.62C8.72667 7.11333 8.86 6.54 8.86 5.9C8.86 5.26 8.72667 4.68667 8.46 4.18C8.19333 3.67333 7.82 3.28 7.34 3C6.86 2.70667 6.32667 2.56 5.74 2.56C5.15333 2.56 4.62667 2.70667 4.16 3C3.69333 3.28 3.32667 3.67333 3.06 4.18C2.79333 4.68667 2.66 5.26 2.66 5.9C2.66 6.54 2.79333 7.11333 3.06 7.62C3.32667 8.12667 3.69333 8.52667 4.16 8.82C4.62667 9.1 5.15333 9.24 5.74 9.24ZM20.9047 2.8H15.8047V11H13.9047V1H20.9047V2.8ZM26.4255 0.799999C27.4521 0.799999 28.3455 1.02 29.1055 1.46C29.8788 1.9 30.4721 2.52667 30.8855 3.34C31.2988 4.14 31.5055 5.08 31.5055 6.16C31.5055 6.44 31.4988 6.64667 31.4855 6.78H23.2855C23.4188 7.55333 23.7788 8.19333 24.3655 8.7C24.9655 9.19333 25.6588 9.44 26.4455 9.44C27.7388 9.44 28.6588 8.96667 29.2055 8.02H31.1655C30.8455 8.95333 30.2521 9.72 29.3855 10.32C28.5188 10.9067 27.5388 11.2 26.4455 11.2C25.4721 11.2 24.5921 10.98 23.8055 10.54C23.0188 10.0867 22.4055 9.46667 21.9655 8.68C21.5255 7.88 21.3055 6.98667 21.3055 6C21.3055 5.01333 21.5255 4.12667 21.9655 3.34C22.4055 2.54 23.0121 1.92 23.7855 1.48C24.5721 1.02667 25.4521 0.799999 26.4255 0.799999ZM26.3855 2.48C25.5988 2.48 24.9188 2.72667 24.3455 3.22C23.7855 3.71333 23.4388 4.34667 23.3055 5.12H29.4455C29.3655 4.32 29.0388 3.68 28.4655 3.2C27.9055 2.72 27.2121 2.48 26.3855 2.48ZM38.1247 0.799999C39.1514 0.799999 40.0447 1.02 40.8047 1.46C41.578 1.9 42.1714 2.52667 42.5847 3.34C42.998 4.14 43.2047 5.08 43.2047 6.16C43.2047 6.44 43.198 6.64667 43.1847 6.78H34.9847C35.118 7.55333 35.478 8.19333 36.0647 8.7C36.6647 9.19333 37.358 9.44 38.1447 9.44C39.438 9.44 40.358 8.96667 40.9047 8.02H42.8647C42.5447 8.95333 41.9514 9.72 41.0847 10.32C40.218 10.9067 39.238 11.2 38.1447 11.2C37.1714 11.2 36.2914 10.98 35.5047 10.54C34.718 10.0867 34.1047 9.46667 33.6647 8.68C33.2247 7.88 33.0047 6.98667 33.0047 6C33.0047 5.01333 33.2247 4.12667 33.6647 3.34C34.1047 2.54 34.7114 1.92 35.4847 1.48C36.2714 1.02667 37.1514 0.799999 38.1247 0.799999ZM38.0847 2.48C37.298 2.48 36.618 2.72667 36.0447 3.22C35.4847 3.71333 35.138 4.34667 35.0047 5.12H41.1447C41.0647 4.32 40.738 3.68 40.1647 3.2C39.6047 2.72 38.9114 2.48 38.0847 2.48ZM50.6063 0.799999C51.4196 0.799999 52.1463 0.973332 52.7863 1.32C53.4396 1.66667 53.9529 2.19333 54.3263 2.9C54.7129 3.59333 54.9063 4.44667 54.9063 5.46V11H53.0063V5.5C53.0063 4.62 52.7463 3.92 52.2263 3.4C51.7063 2.88 51.0529 2.62 50.2663 2.62C49.6929 2.62 49.1863 2.76 48.7463 3.04C48.3196 3.30667 47.9863 3.67333 47.7463 4.14C47.5196 4.60667 47.4063 5.11333 47.4063 5.66V11H45.5063V1H47.3063V2.6C47.6796 2.05333 48.1529 1.62 48.7263 1.3C49.3129 0.966666 49.9396 0.799999 50.6063 0.799999ZM10.7 19V29H8.8V27.5C8.38667 28.0333 7.88667 28.4533 7.3 28.76C6.71333 29.0533 6.08667 29.2 5.42 29.2C4.54 29.2 3.74 28.98 3.02 28.54C2.3 28.0867 1.73333 27.4667 1.32 26.68C0.906667 25.8933 0.7 25 0.7 24C0.7 23 0.906667 22.1067 1.32 21.32C1.73333 20.5333 2.3 19.92 3.02 19.48C3.74 19.0267 4.54 18.8 5.42 18.8C6.11333 18.8 6.76 18.96 7.36 19.28C7.96 19.6 8.47333 20.0467 8.9 20.62V19H10.7ZM5.74 27.44C6.32667 27.44 6.86 27.2933 7.34 27C7.82 26.7067 8.19333 26.3 8.46 25.78C8.72667 25.2467 8.86 24.6533 8.86 24C8.86 23.3467 8.72667 22.76 8.46 22.24C8.19333 21.7067 7.82 21.2933 7.34 21C6.86 20.7067 6.32667 20.56 5.74 20.56C5.15333 20.56 4.62667 20.7067 4.16 21C3.69333 21.2933 3.32667 21.7067 3.06 22.24C2.79333 22.76 2.66 23.3467 2.66 24C2.66 24.6533 2.79333 25.2467 3.06 25.78C3.32667 26.3 3.69333 26.7067 4.16 27C4.62667 27.2933 5.15333 27.44 5.74 27.44ZM22.9047 19V29H13.9047V19H15.8047V27.2H21.0047V19H22.9047ZM28.6117 20.8V27.2H31.2117V29H26.7117V20.8H24.7117V19H26.7117V16.4H28.6117V19H31.4117V20.8H28.6117ZM37.8364 29.2C36.8497 29.2 35.9497 28.9733 35.1364 28.52C34.3231 28.0533 33.6831 27.4267 33.2164 26.64C32.7497 25.84 32.5164 24.96 32.5164 24C32.5164 23.04 32.7497 22.1667 33.2164 21.38C33.6831 20.58 34.3231 19.9533 35.1364 19.5C35.9497 19.0333 36.8497 18.8 37.8364 18.8C38.8097 18.8 39.6964 19.0333 40.4964 19.5C41.3097 19.9533 41.9497 20.58 42.4164 21.38C42.8831 22.1667 43.1164 23.04 43.1164 24C43.1164 24.96 42.8831 25.84 42.4164 26.64C41.9497 27.4267 41.3097 28.0533 40.4964 28.52C39.6964 28.9733 38.8097 29.2 37.8364 29.2ZM37.8364 27.44C38.4497 27.44 39.0097 27.2933 39.5164 27C40.0231 26.6933 40.4231 26.28 40.7164 25.76C41.0097 25.2267 41.1564 24.64 41.1564 24C41.1564 23.36 41.0097 22.78 40.7164 22.26C40.4231 21.7267 40.0231 21.3133 39.5164 21.02C39.0097 20.7133 38.4497 20.56 37.8364 20.56C37.2097 20.56 36.6364 20.7133 36.1164 21.02C35.6097 21.3133 35.2097 21.7267 34.9164 22.26C34.6231 22.78 34.4764 23.36 34.4764 24C34.4764 24.64 34.6231 25.2267 34.9164 25.76C35.2097 26.28 35.6097 26.6933 36.1164 27C36.6364 27.2933 37.2097 27.44 37.8364 27.44ZM47.8109 20.8V27.2H50.4109V29H45.9109V20.8H43.9109V19H45.9109V16.4H47.8109V19H50.6109V20.8H47.8109ZM56.8356 18.8C57.8623 18.8 58.7556 19.02 59.5156 19.46C60.289 19.9 60.8823 20.5267 61.2956 21.34C61.709 22.14 61.9156 23.08 61.9156 24.16C61.9156 24.44 61.909 24.6467 61.8956 24.78H53.6956C53.829 25.5533 54.189 26.1933 54.7756 26.7C55.3756 27.1933 56.069 27.44 56.8556 27.44C58.149 27.44 59.069 26.9667 59.6156 26.02H61.5756C61.2556 26.9533 60.6623 27.72 59.7956 28.32C58.929 28.9067 57.949 29.2 56.8556 29.2C55.8823 29.2 55.0023 28.98 54.2156 28.54C53.429 28.0867 52.8156 27.4667 52.3756 26.68C51.9356 25.88 51.7156 24.9867 51.7156 24C51.7156 23.0133 51.9356 22.1267 52.3756 21.34C52.8156 20.54 53.4223 19.92 54.1956 19.48C54.9823 19.0267 55.8623 18.8 56.8356 18.8ZM56.7956 20.48C56.009 20.48 55.329 20.7267 54.7556 21.22C54.1956 21.7133 53.849 22.3467 53.7156 23.12H59.8556C59.7756 22.32 59.449 21.68 58.8756 21.2C58.3156 20.72 57.6223 20.48 56.7956 20.48ZM67.9372 24.9H66.1172V29H64.2172V14.9H66.1172V23.1H67.8972L70.9972 19H73.0972L69.3972 23.86L73.3372 29H71.0372L67.9372 24.9ZM83.9031 19V29H82.0031V27.5C81.5898 28.0333 81.0898 28.4533 80.5031 28.76C79.9165 29.0533 79.2898 29.2 78.6231 29.2C77.7431 29.2 76.9431 28.98 76.2231 28.54C75.5031 28.0867 74.9365 27.4667 74.5231 26.68C74.1098 25.8933 73.9031 25 73.9031 24C73.9031 23 74.1098 22.1067 74.5231 21.32C74.9365 20.5333 75.5031 19.92 76.2231 19.48C76.9431 19.0267 77.7431 18.8 78.6231 18.8C79.3165 18.8 79.9631 18.96 80.5631 19.28C81.1631 19.6 81.6765 20.0467 82.1031 20.62V19H83.9031ZM78.9431 27.44C79.5298 27.44 80.0631 27.2933 80.5431 27C81.0231 26.7067 81.3965 26.3 81.6631 25.78C81.9298 25.2467 82.0631 24.6533 82.0631 24C82.0631 23.3467 81.9298 22.76 81.6631 22.24C81.3965 21.7067 81.0231 21.2933 80.5431 21C80.0631 20.7067 79.5298 20.56 78.9431 20.56C78.3565 20.56 77.8298 20.7067 77.3631 21C76.8965 21.2933 76.5298 21.7067 76.2631 22.24C75.9965 22.76 75.8631 23.3467 75.8631 24C75.8631 24.6533 75.9965 25.2467 76.2631 25.78C76.5298 26.3 76.8965 26.7067 77.3631 27C77.8298 27.2933 78.3565 27.44 78.9431 27.44Z"/>
</mask>
<path d="M10.7 1V14.4H2V12.6H8.8V9.24C8.37333 9.76 7.86 10.1667 7.26 10.46C6.66 10.7533 6.01333 10.9 5.32 10.9C4.45333 10.9 3.66667 10.68 2.96 10.24C2.25333 9.8 1.7 9.19333 1.3 8.42C0.9 7.64667 0.7 6.78667 0.7 5.84C0.7 4.90667 0.9 4.05333 1.3 3.28C1.71333 2.50667 2.26667 1.9 2.96 1.46C3.66667 1.02 4.45333 0.799999 5.32 0.799999C6.04 0.799999 6.70667 0.959999 7.32 1.28C7.94667 1.58667 8.47333 2.02 8.9 2.58V1H10.7ZM5.74 9.24C6.32667 9.24 6.86 9.1 7.34 8.82C7.82 8.52667 8.19333 8.12667 8.46 7.62C8.72667 7.11333 8.86 6.54 8.86 5.9C8.86 5.26 8.72667 4.68667 8.46 4.18C8.19333 3.67333 7.82 3.28 7.34 3C6.86 2.70667 6.32667 2.56 5.74 2.56C5.15333 2.56 4.62667 2.70667 4.16 3C3.69333 3.28 3.32667 3.67333 3.06 4.18C2.79333 4.68667 2.66 5.26 2.66 5.9C2.66 6.54 2.79333 7.11333 3.06 7.62C3.32667 8.12667 3.69333 8.52667 4.16 8.82C4.62667 9.1 5.15333 9.24 5.74 9.24ZM20.9047 2.8H15.8047V11H13.9047V1H20.9047V2.8ZM26.4255 0.799999C27.4521 0.799999 28.3455 1.02 29.1055 1.46C29.8788 1.9 30.4721 2.52667 30.8855 3.34C31.2988 4.14 31.5055 5.08 31.5055 6.16C31.5055 6.44 31.4988 6.64667 31.4855 6.78H23.2855C23.4188 7.55333 23.7788 8.19333 24.3655 8.7C24.9655 9.19333 25.6588 9.44 26.4455 9.44C27.7388 9.44 28.6588 8.96667 29.2055 8.02H31.1655C30.8455 8.95333 30.2521 9.72 29.3855 10.32C28.5188 10.9067 27.5388 11.2 26.4455 11.2C25.4721 11.2 24.5921 10.98 23.8055 10.54C23.0188 10.0867 22.4055 9.46667 21.9655 8.68C21.5255 7.88 21.3055 6.98667 21.3055 6C21.3055 5.01333 21.5255 4.12667 21.9655 3.34C22.4055 2.54 23.0121 1.92 23.7855 1.48C24.5721 1.02667 25.4521 0.799999 26.4255 0.799999ZM26.3855 2.48C25.5988 2.48 24.9188 2.72667 24.3455 3.22C23.7855 3.71333 23.4388 4.34667 23.3055 5.12H29.4455C29.3655 4.32 29.0388 3.68 28.4655 3.2C27.9055 2.72 27.2121 2.48 26.3855 2.48ZM38.1247 0.799999C39.1514 0.799999 40.0447 1.02 40.8047 1.46C41.578 1.9 42.1714 2.52667 42.5847 3.34C42.998 4.14 43.2047 5.08 43.2047 6.16C43.2047 6.44 43.198 6.64667 43.1847 6.78H34.9847C35.118 7.55333 35.478 8.19333 36.0647 8.7C36.6647 9.19333 37.358 9.44 38.1447 9.44C39.438 9.44 40.358 8.96667 40.9047 8.02H42.8647C42.5447 8.95333 41.9514 9.72 41.0847 10.32C40.218 10.9067 39.238 11.2 38.1447 11.2C37.1714 11.2 36.2914 10.98 35.5047 10.54C34.718 10.0867 34.1047 9.46667 33.6647 8.68C33.2247 7.88 33.0047 6.98667 33.0047 6C33.0047 5.01333 33.2247 4.12667 33.6647 3.34C34.1047 2.54 34.7114 1.92 35.4847 1.48C36.2714 1.02667 37.1514 0.799999 38.1247 0.799999ZM38.0847 2.48C37.298 2.48 36.618 2.72667 36.0447 3.22C35.4847 3.71333 35.138 4.34667 35.0047 5.12H41.1447C41.0647 4.32 40.738 3.68 40.1647 3.2C39.6047 2.72 38.9114 2.48 38.0847 2.48ZM50.6063 0.799999C51.4196 0.799999 52.1463 0.973332 52.7863 1.32C53.4396 1.66667 53.9529 2.19333 54.3263 2.9C54.7129 3.59333 54.9063 4.44667 54.9063 5.46V11H53.0063V5.5C53.0063 4.62 52.7463 3.92 52.2263 3.4C51.7063 2.88 51.0529 2.62 50.2663 2.62C49.6929 2.62 49.1863 2.76 48.7463 3.04C48.3196 3.30667 47.9863 3.67333 47.7463 4.14C47.5196 4.60667 47.4063 5.11333 47.4063 5.66V11H45.5063V1H47.3063V2.6C47.6796 2.05333 48.1529 1.62 48.7263 1.3C49.3129 0.966666 49.9396 0.799999 50.6063 0.799999ZM10.7 19V29H8.8V27.5C8.38667 28.0333 7.88667 28.4533 7.3 28.76C6.71333 29.0533 6.08667 29.2 5.42 29.2C4.54 29.2 3.74 28.98 3.02 28.54C2.3 28.0867 1.73333 27.4667 1.32 26.68C0.906667 25.8933 0.7 25 0.7 24C0.7 23 0.906667 22.1067 1.32 21.32C1.73333 20.5333 2.3 19.92 3.02 19.48C3.74 19.0267 4.54 18.8 5.42 18.8C6.11333 18.8 6.76 18.96 7.36 19.28C7.96 19.6 8.47333 20.0467 8.9 20.62V19H10.7ZM5.74 27.44C6.32667 27.44 6.86 27.2933 7.34 27C7.82 26.7067 8.19333 26.3 8.46 25.78C8.72667 25.2467 8.86 24.6533 8.86 24C8.86 23.3467 8.72667 22.76 8.46 22.24C8.19333 21.7067 7.82 21.2933 7.34 21C6.86 20.7067 6.32667 20.56 5.74 20.56C5.15333 20.56 4.62667 20.7067 4.16 21C3.69333 21.2933 3.32667 21.7067 3.06 22.24C2.79333 22.76 2.66 23.3467 2.66 24C2.66 24.6533 2.79333 25.2467 3.06 25.78C3.32667 26.3 3.69333 26.7067 4.16 27C4.62667 27.2933 5.15333 27.44 5.74 27.44ZM22.9047 19V29H13.9047V19H15.8047V27.2H21.0047V19H22.9047ZM28.6117 20.8V27.2H31.2117V29H26.7117V20.8H24.7117V19H26.7117V16.4H28.6117V19H31.4117V20.8H28.6117ZM37.8364 29.2C36.8497 29.2 35.9497 28.9733 35.1364 28.52C34.3231 28.0533 33.6831 27.4267 33.2164 26.64C32.7497 25.84 32.5164 24.96 32.5164 24C32.5164 23.04 32.7497 22.1667 33.2164 21.38C33.6831 20.58 34.3231 19.9533 35.1364 19.5C35.9497 19.0333 36.8497 18.8 37.8364 18.8C38.8097 18.8 39.6964 19.0333 40.4964 19.5C41.3097 19.9533 41.9497 20.58 42.4164 21.38C42.8831 22.1667 43.1164 23.04 43.1164 24C43.1164 24.96 42.8831 25.84 42.4164 26.64C41.9497 27.4267 41.3097 28.0533 40.4964 28.52C39.6964 28.9733 38.8097 29.2 37.8364 29.2ZM37.8364 27.44C38.4497 27.44 39.0097 27.2933 39.5164 27C40.0231 26.6933 40.4231 26.28 40.7164 25.76C41.0097 25.2267 41.1564 24.64 41.1564 24C41.1564 23.36 41.0097 22.78 40.7164 22.26C40.4231 21.7267 40.0231 21.3133 39.5164 21.02C39.0097 20.7133 38.4497 20.56 37.8364 20.56C37.2097 20.56 36.6364 20.7133 36.1164 21.02C35.6097 21.3133 35.2097 21.7267 34.9164 22.26C34.6231 22.78 34.4764 23.36 34.4764 24C34.4764 24.64 34.6231 25.2267 34.9164 25.76C35.2097 26.28 35.6097 26.6933 36.1164 27C36.6364 27.2933 37.2097 27.44 37.8364 27.44ZM47.8109 20.8V27.2H50.4109V29H45.9109V20.8H43.9109V19H45.9109V16.4H47.8109V19H50.6109V20.8H47.8109ZM56.8356 18.8C57.8623 18.8 58.7556 19.02 59.5156 19.46C60.289 19.9 60.8823 20.5267 61.2956 21.34C61.709 22.14 61.9156 23.08 61.9156 24.16C61.9156 24.44 61.909 24.6467 61.8956 24.78H53.6956C53.829 25.5533 54.189 26.1933 54.7756 26.7C55.3756 27.1933 56.069 27.44 56.8556 27.44C58.149 27.44 59.069 26.9667 59.6156 26.02H61.5756C61.2556 26.9533 60.6623 27.72 59.7956 28.32C58.929 28.9067 57.949 29.2 56.8556 29.2C55.8823 29.2 55.0023 28.98 54.2156 28.54C53.429 28.0867 52.8156 27.4667 52.3756 26.68C51.9356 25.88 51.7156 24.9867 51.7156 24C51.7156 23.0133 51.9356 22.1267 52.3756 21.34C52.8156 20.54 53.4223 19.92 54.1956 19.48C54.9823 19.0267 55.8623 18.8 56.8356 18.8ZM56.7956 20.48C56.009 20.48 55.329 20.7267 54.7556 21.22C54.1956 21.7133 53.849 22.3467 53.7156 23.12H59.8556C59.7756 22.32 59.449 21.68 58.8756 21.2C58.3156 20.72 57.6223 20.48 56.7956 20.48ZM67.9372 24.9H66.1172V29H64.2172V14.9H66.1172V23.1H67.8972L70.9972 19H73.0972L69.3972 23.86L73.3372 29H71.0372L67.9372 24.9ZM83.9031 19V29H82.0031V27.5C81.5898 28.0333 81.0898 28.4533 80.5031 28.76C79.9165 29.0533 79.2898 29.2 78.6231 29.2C77.7431 29.2 76.9431 28.98 76.2231 28.54C75.5031 28.0867 74.9365 27.4667 74.5231 26.68C74.1098 25.8933 73.9031 25 73.9031 24C73.9031 23 74.1098 22.1067 74.5231 21.32C74.9365 20.5333 75.5031 19.92 76.2231 19.48C76.9431 19.0267 77.7431 18.8 78.6231 18.8C79.3165 18.8 79.9631 18.96 80.5631 19.28C81.1631 19.6 81.6765 20.0467 82.1031 20.62V19H83.9031ZM78.9431 27.44C79.5298 27.44 80.0631 27.2933 80.5431 27C81.0231 26.7067 81.3965 26.3 81.6631 25.78C81.9298 25.2467 82.0631 24.6533 82.0631 24C82.0631 23.3467 81.9298 22.76 81.6631 22.24C81.3965 21.7067 81.0231 21.2933 80.5431 21C80.0631 20.7067 79.5298 20.56 78.9431 20.56C78.3565 20.56 77.8298 20.7067 77.3631 21C76.8965 21.2933 76.5298 21.7067 76.2631 22.24C75.9965 22.76 75.8631 23.3467 75.8631 24C75.8631 24.6533 75.9965 25.2467 76.2631 25.78C76.5298 26.3 76.8965 26.7067 77.3631 27C77.8298 27.2933 78.3565 27.44 78.9431 27.44Z" fill="white"/>
<path d="M10.7 1H10.9V0.8H10.7V1ZM10.7 14.4V14.6H10.9V14.4H10.7ZM2 14.4H1.8V14.6H2V14.4ZM2 12.6V12.4H1.8V12.6H2ZM8.8 12.6V12.8H9V12.6H8.8ZM8.8 9.24H9V8.68095L8.64539 9.11314L8.8 9.24ZM7.26 10.46L7.17216 10.2803L7.17216 10.2803L7.26 10.46ZM2.96 10.24L2.85429 10.4098L2.85429 10.4098L2.96 10.24ZM1.3 8.42L1.47764 8.32812L1.47764 8.32812L1.3 8.42ZM1.3 3.28L1.1236 3.18572L1.12236 3.18812L1.3 3.28ZM2.96 1.46L2.85428 1.29021L2.85284 1.29113L2.96 1.46ZM7.32 1.28L7.22746 1.45738L7.23209 1.45964L7.32 1.28ZM8.9 2.58L8.74091 2.70121L9.1 3.17251V2.58H8.9ZM8.9 1V0.8H8.7V1H8.9ZM7.34 8.82L7.4408 8.99279L7.44429 8.99066L7.34 8.82ZM8.46 7.62L8.28302 7.52685L8.28302 7.52685L8.46 7.62ZM8.46 4.18L8.28302 4.27315L8.28302 4.27315L8.46 4.18ZM7.34 3L7.23569 3.17069L7.23923 3.17276L7.34 3ZM4.16 3L4.26292 3.17154L4.26643 3.16933L4.16 3ZM3.06 4.18L2.88302 4.08685L3.06 4.18ZM3.06 7.62L3.23698 7.52685L3.23698 7.52685L3.06 7.62ZM4.16 8.82L4.05354 8.98936L4.0571 8.9915L4.16 8.82ZM10.5 1V14.4H10.9V1H10.5ZM10.7 14.2H2V14.6H10.7V14.2ZM2.2 14.4V12.6H1.8V14.4H2.2ZM2 12.8H8.8V12.4H2V12.8ZM9 12.6V9.24H8.6V12.6H9ZM8.64539 9.11314C8.23679 9.61111 7.74618 9.99969 7.17216 10.2803L7.34784 10.6397C7.97382 10.3336 8.50987 9.90889 8.95462 9.36686L8.64539 9.11314ZM7.17216 10.2803C6.60056 10.5598 5.98408 10.7 5.32 10.7V11.1C6.04258 11.1 6.71944 10.9469 7.34784 10.6397L7.17216 10.2803ZM5.32 10.7C4.48909 10.7 3.73931 10.4896 3.06571 10.0702L2.85429 10.4098C3.59402 10.8704 4.41758 11.1 5.32 11.1V10.7ZM3.06571 10.0702C2.39103 9.65013 1.8619 9.07102 1.47764 8.32812L1.12236 8.51188C1.5381 9.31565 2.11564 9.94987 2.85429 10.4098L3.06571 10.0702ZM1.47764 8.32812C1.09359 7.58561 0.9 6.75754 0.9 5.84H0.5C0.5 6.81579 0.70641 7.70772 1.12236 8.51188L1.47764 8.32812ZM0.9 5.84C0.9 4.93628 1.09338 4.11479 1.47764 3.37188L1.12236 3.18812C0.706619 3.99187 0.5 4.87705 0.5 5.84H0.9ZM1.47639 3.37428C1.8746 2.62922 2.40493 2.04913 3.06716 1.62887L2.85284 1.29113C2.12841 1.75087 1.55206 2.38411 1.12361 3.18572L1.47639 3.37428ZM3.06571 1.62978C3.73931 1.21037 4.48909 0.999999 5.32 0.999999V0.599999C4.41758 0.599999 3.59402 0.829633 2.85429 1.29022L3.06571 1.62978ZM5.32 0.999999C6.00914 0.999999 6.6439 1.15283 7.22749 1.45732L7.41251 1.10268C6.76944 0.767165 6.07086 0.599999 5.32 0.599999V0.999999ZM7.23209 1.45964C7.83055 1.7525 8.33293 2.16572 8.74091 2.70121L9.05909 2.45879C8.61374 1.87427 8.06279 1.42083 7.40791 1.10036L7.23209 1.45964ZM9.1 2.58V1H8.7V2.58H9.1ZM8.9 1.2H10.7V0.8H8.9V1.2ZM5.74 9.44C6.36003 9.44 6.92846 9.2916 7.44077 8.99276L7.23923 8.64724C6.79154 8.9084 6.29331 9.04 5.74 9.04V9.44ZM7.44429 8.99066C7.95564 8.67817 8.35383 8.25114 8.63698 7.71315L8.28302 7.52685C8.03283 8.0022 7.68436 8.37517 7.23571 8.64934L7.44429 8.99066ZM8.63698 7.71315C8.92048 7.17451 9.06 6.56858 9.06 5.9H8.66C8.66 6.51142 8.53286 7.05215 8.28302 7.52685L8.63698 7.71315ZM9.06 5.9C9.06 5.23142 8.92048 4.62549 8.63698 4.08685L8.28302 4.27315C8.53286 4.74785 8.66 5.28858 8.66 5.9H9.06ZM8.63698 4.08685C8.35343 3.54809 7.95415 3.12671 7.44077 2.82724L7.23923 3.17276C7.68585 3.43329 8.03324 3.79857 8.28302 4.27315L8.63698 4.08685ZM7.44429 2.82934C6.93151 2.51598 6.36181 2.36 5.74 2.36V2.76C6.29152 2.76 6.78849 2.89736 7.23571 3.17066L7.44429 2.82934ZM5.74 2.36C5.11821 2.36 4.55419 2.51599 4.05357 2.83067L4.26643 3.16933C4.69914 2.89734 5.18846 2.76 5.74 2.76V2.36ZM4.0571 2.8285C3.55737 3.12834 3.16581 3.54954 2.88302 4.08685L3.23698 4.27315C3.48752 3.79713 3.8293 3.43166 4.2629 3.1715L4.0571 2.8285ZM2.88302 4.08685C2.59952 4.62549 2.46 5.23142 2.46 5.9H2.86C2.86 5.28858 2.98714 4.74785 3.23698 4.27315L2.88302 4.08685ZM2.46 5.9C2.46 6.56858 2.59952 7.17451 2.88302 7.71315L3.23698 7.52685C2.98714 7.05215 2.86 6.51142 2.86 5.9H2.46ZM2.88302 7.71315C3.16542 8.24972 3.5559 8.67651 4.05357 8.98933L4.26643 8.65067C3.83076 8.37682 3.48791 8.00362 3.23698 7.52685L2.88302 7.71315ZM4.0571 8.9915C4.55727 9.2916 5.12002 9.44 5.74 9.44V9.04C5.18665 9.04 4.69606 8.9084 4.2629 8.6485L4.0571 8.9915ZM20.9047 2.8V3H21.1047V2.8H20.9047ZM15.8047 2.8V2.6H15.6047V2.8H15.8047ZM15.8047 11V11.2H16.0047V11H15.8047ZM13.9047 11H13.7047V11.2H13.9047V11ZM13.9047 1V0.8H13.7047V1H13.9047ZM20.9047 1H21.1047V0.8H20.9047V1ZM20.9047 2.6H15.8047V3H20.9047V2.6ZM15.6047 2.8V11H16.0047V2.8H15.6047ZM15.8047 10.8H13.9047V11.2H15.8047V10.8ZM14.1047 11V1H13.7047V11H14.1047ZM13.9047 1.2H20.9047V0.8H13.9047V1.2ZM20.7047 1V2.8H21.1047V1H20.7047ZM29.1055 1.46L29.0053 1.63309L29.0066 1.63383L29.1055 1.46ZM30.8855 3.34L30.7072 3.43061L30.7078 3.4318L30.8855 3.34ZM31.4855 6.78V6.98H31.6665L31.6845 6.7999L31.4855 6.78ZM23.2855 6.78V6.58H23.048L23.0884 6.81398L23.2855 6.78ZM24.3655 8.7L24.2347 8.85141L24.2384 8.85449L24.3655 8.7ZM29.2055 8.02V7.82H29.09L29.0323 7.91999L29.2055 8.02ZM31.1655 8.02L31.3547 8.08486L31.4455 7.82H31.1655V8.02ZM29.3855 10.32L29.4976 10.4856L29.4993 10.4844L29.3855 10.32ZM23.8055 10.54L23.7056 10.7133L23.7078 10.7146L23.8055 10.54ZM21.9655 8.68L21.7902 8.77639L21.7909 8.77763L21.9655 8.68ZM21.9655 3.34L22.14 3.43763L22.1407 3.43638L21.9655 3.34ZM23.7855 1.48L23.8844 1.65384L23.8853 1.65329L23.7855 1.48ZM24.3455 3.22L24.215 3.06839L24.2133 3.06993L24.3455 3.22ZM23.3055 5.12L23.1084 5.08602L23.068 5.32H23.3055V5.12ZM29.4455 5.12V5.32H29.6665L29.6445 5.1001L29.4455 5.12ZM28.4655 3.2L28.3353 3.35186L28.3371 3.35335L28.4655 3.2ZM26.4255 0.999999C27.423 0.999999 28.2805 1.2135 29.0053 1.63308L29.2057 1.28691C28.4104 0.8265 27.4813 0.599999 26.4255 0.599999V0.999999ZM29.0066 1.63383C29.745 2.05395 30.3111 2.65125 30.7072 3.43061L31.0638 3.24939C30.6332 2.40208 30.0127 1.74605 29.2044 1.28617L29.0066 1.63383ZM30.7078 3.4318C31.1038 4.1983 31.3055 5.10562 31.3055 6.16H31.7055C31.7055 5.05437 31.4938 4.0817 31.0632 3.2482L30.7078 3.4318ZM31.3055 6.16C31.3055 6.43888 31.2987 6.63723 31.2865 6.7601L31.6845 6.7999C31.6989 6.65611 31.7055 6.44112 31.7055 6.16H31.3055ZM31.4855 6.58H23.2855V6.98H31.4855V6.58ZM23.0884 6.81398C23.2295 7.63233 23.6126 8.31403 24.2347 8.85136L24.4962 8.54864C23.945 8.07264 23.6081 7.47434 23.4826 6.74602L23.0884 6.81398ZM24.2384 8.85449C24.8747 9.37765 25.6131 9.64 26.4455 9.64V9.24C25.7045 9.24 25.0562 9.00901 24.4925 8.54551L24.2384 8.85449ZM26.4455 9.64C27.7947 9.64 28.7891 9.14091 29.3787 8.12001L29.0323 7.91999C28.5285 8.79242 27.6829 9.24 26.4455 9.24V9.64ZM29.2055 8.22H31.1655V7.82H29.2055V8.22ZM30.9763 7.95514C30.6711 8.84525 30.1057 9.5781 29.2716 10.1556L29.4993 10.4844C30.3985 9.8619 31.0198 9.06141 31.3547 8.08486L30.9763 7.95514ZM29.2734 10.1544C28.4413 10.7176 27.5007 11 26.4455 11V11.4C27.5769 11.4 28.5963 11.0957 29.4976 10.4856L29.2734 10.1544ZM26.4455 11C25.5035 11 24.6576 10.7874 23.9031 10.3654L23.7078 10.7146C24.5267 11.1726 25.4408 11.4 26.4455 11.4V11ZM23.9053 10.3667C23.1497 9.93126 22.5623 9.3373 22.14 8.58237L21.7909 8.77763C22.2487 9.59603 22.8879 10.2421 23.7056 10.7133L23.9053 10.3667ZM22.1407 8.58362C21.7182 7.8155 21.5055 6.95576 21.5055 6H21.1055C21.1055 7.01757 21.3327 7.9445 21.7902 8.77638L22.1407 8.58362ZM21.5055 6C21.5055 5.0442 21.7183 4.19169 22.14 3.43763L21.7909 3.24237C21.3327 4.06164 21.1055 4.98247 21.1055 6H21.5055ZM22.1407 3.43638C22.5634 2.66786 23.144 2.07507 23.8844 1.65383L23.6866 1.30617C22.8802 1.76493 22.2475 2.41214 21.7902 3.24362L22.1407 3.43638ZM23.8853 1.65329C24.6394 1.21871 25.4846 0.999999 26.4255 0.999999V0.599999C25.4197 0.599999 24.5048 0.834619 23.6856 1.30671L23.8853 1.65329ZM26.3855 2.28C25.553 2.28 24.8262 2.5425 24.215 3.0684L24.4759 3.3716C25.0114 2.91083 25.6446 2.68 26.3855 2.68V2.28ZM24.2133 3.06993C23.6172 3.59506 23.249 4.27022 23.1084 5.08602L23.5026 5.15398C23.6286 4.42312 23.9538 3.83161 24.4777 3.37007L24.2133 3.06993ZM23.3055 5.32H29.4455V4.92H23.3055V5.32ZM29.6445 5.1001C29.5597 4.25241 29.2105 3.56288 28.5939 3.04665L28.3371 3.35335C28.8671 3.79712 29.1712 4.38759 29.2465 5.1399L29.6445 5.1001ZM28.5956 3.04815C27.995 2.53329 27.2537 2.28 26.3855 2.28V2.68C27.1706 2.68 27.816 2.90671 28.3353 3.35185L28.5956 3.04815ZM40.8047 1.46L40.7045 1.63309L40.7058 1.63383L40.8047 1.46ZM42.5847 3.34L42.4064 3.43061L42.407 3.4318L42.5847 3.34ZM43.1847 6.78V6.98H43.3657L43.3837 6.7999L43.1847 6.78ZM34.9847 6.78V6.58H34.7473L34.7876 6.81398L34.9847 6.78ZM36.0647 8.7L35.9339 8.85141L35.9377 8.85449L36.0647 8.7ZM40.9047 8.02V7.82H40.7892L40.7315 7.91999L40.9047 8.02ZM42.8647 8.02L43.0539 8.08486L43.1447 7.82H42.8647V8.02ZM41.0847 10.32L41.1968 10.4856L41.1985 10.4844L41.0847 10.32ZM35.5047 10.54L35.4048 10.7133L35.4071 10.7146L35.5047 10.54ZM33.6647 8.68L33.4894 8.77639L33.4901 8.77763L33.6647 8.68ZM33.6647 3.34L33.8392 3.43763L33.8399 3.43638L33.6647 3.34ZM35.4847 1.48L35.5836 1.65384L35.5845 1.65329L35.4847 1.48ZM36.0447 3.22L35.9142 3.06839L35.9125 3.06993L36.0447 3.22ZM35.0047 5.12L34.8076 5.08602L34.7673 5.32H35.0047V5.12ZM41.1447 5.12V5.32H41.3657L41.3437 5.1001L41.1447 5.12ZM40.1647 3.2L40.0345 3.35186L40.0363 3.35335L40.1647 3.2ZM38.1247 0.999999C39.1222 0.999999 39.9797 1.2135 40.7045 1.63308L40.9049 1.28691C40.1096 0.8265 39.1805 0.599999 38.1247 0.599999V0.999999ZM40.7058 1.63383C41.4442 2.05395 42.0103 2.65125 42.4064 3.43061L42.763 3.24939C42.3324 2.40208 41.7119 1.74605 40.9036 1.28617L40.7058 1.63383ZM42.407 3.4318C42.803 4.1983 43.0047 5.10562 43.0047 6.16H43.4047C43.4047 5.05437 43.193 4.0817 42.7624 3.2482L42.407 3.4318ZM43.0047 6.16C43.0047 6.43888 42.998 6.63723 42.9857 6.7601L43.3837 6.7999C43.3981 6.65611 43.4047 6.44112 43.4047 6.16H43.0047ZM43.1847 6.58H34.9847V6.98H43.1847V6.58ZM34.7876 6.81398C34.9287 7.63233 35.3118 8.31403 35.934 8.85136L36.1954 8.54864C35.6443 8.07264 35.3074 7.47434 35.1818 6.74602L34.7876 6.81398ZM35.9377 8.85449C36.574 9.37765 37.3123 9.64 38.1447 9.64V9.24C37.4037 9.24 36.7554 9.00901 36.1917 8.54551L35.9377 8.85449ZM38.1447 9.64C39.494 9.64 40.4884 9.14091 41.0779 8.12001L40.7315 7.91999C40.2277 8.79242 39.3821 9.24 38.1447 9.24V9.64ZM40.9047 8.22H42.8647V7.82H40.9047V8.22ZM42.6755 7.95514C42.3703 8.84525 41.805 9.5781 40.9708 10.1556L41.1985 10.4844C42.0977 9.8619 42.7191 9.06141 43.0539 8.08486L42.6755 7.95514ZM40.9726 10.1544C40.1405 10.7176 39.1999 11 38.1447 11V11.4C39.2761 11.4 40.2955 11.0957 41.1968 10.4856L40.9726 10.1544ZM38.1447 11C37.2027 11 36.3568 10.7874 35.6023 10.3654L35.4071 10.7146C36.2259 11.1726 37.14 11.4 38.1447 11.4V11ZM35.6045 10.3667C34.8489 9.93126 34.2615 9.3373 33.8392 8.58237L33.4901 8.77763C33.9479 9.59603 34.5871 10.2421 35.4048 10.7133L35.6045 10.3667ZM33.8399 8.58362C33.4175 7.8155 33.2047 6.95576 33.2047 6H32.8047C32.8047 7.01757 33.0319 7.9445 33.4894 8.77638L33.8399 8.58362ZM33.2047 6C33.2047 5.0442 33.4175 4.19169 33.8392 3.43763L33.4901 3.24237C33.0319 4.06164 32.8047 4.98247 32.8047 6H33.2047ZM33.8399 3.43638C34.2626 2.66786 34.8432 2.07507 35.5836 1.65383L35.3858 1.30617C34.5795 1.76493 33.9468 2.41214 33.4894 3.24362L33.8399 3.43638ZM35.5845 1.65329C36.3387 1.21871 37.1838 0.999999 38.1247 0.999999V0.599999C37.1189 0.599999 36.2041 0.834619 35.3848 1.30671L35.5845 1.65329ZM38.0847 2.28C37.2522 2.28 36.5254 2.5425 35.9142 3.0684L36.1751 3.3716C36.7106 2.91083 37.3438 2.68 38.0847 2.68V2.28ZM35.9125 3.06993C35.3164 3.59506 34.9483 4.27022 34.8076 5.08602L35.2018 5.15398C35.3278 4.42312 35.653 3.83161 36.1769 3.37007L35.9125 3.06993ZM35.0047 5.32H41.1447V4.92H35.0047V5.32ZM41.3437 5.1001C41.2589 4.25241 40.9097 3.56288 40.2931 3.04665L40.0363 3.35335C40.5664 3.79712 40.8704 4.38759 40.9457 5.1399L41.3437 5.1001ZM40.2948 3.04815C39.6942 2.53329 38.9529 2.28 38.0847 2.28V2.68C38.8698 2.68 39.5152 2.90671 40.0345 3.35185L40.2948 3.04815ZM52.7863 1.32L52.691 1.49586L52.6925 1.49667L52.7863 1.32ZM54.3263 2.9L54.1494 2.99345L54.1516 2.99741L54.3263 2.9ZM54.9063 11V11.2H55.1063V11H54.9063ZM53.0063 11H52.8063V11.2H53.0063V11ZM48.7463 3.04L48.8523 3.2096L48.8536 3.20873L48.7463 3.04ZM47.7463 4.14L47.5683 4.04851L47.5663 4.05262L47.7463 4.14ZM47.4063 11V11.2H47.6063V11H47.4063ZM45.5063 11H45.3063V11.2H45.5063V11ZM45.5063 1V0.8H45.3063V1H45.5063ZM47.3063 1H47.5063V0.8H47.3063V1ZM47.3063 2.6H47.1063V3.24749L47.4714 2.71279L47.3063 2.6ZM48.7263 1.3L48.8237 1.47464L48.8251 1.47389L48.7263 1.3ZM50.6063 0.999999C51.3903 0.999999 52.0835 1.16683 52.691 1.49586L52.8815 1.14414C52.209 0.77984 51.4489 0.599999 50.6063 0.599999V0.999999ZM52.6925 1.49667C53.3075 1.82302 53.7932 2.31921 54.1494 2.99342L54.5031 2.80658C54.1126 2.06746 53.5716 1.51032 52.88 1.14333L52.6925 1.49667ZM54.1516 2.99741C54.5177 3.65383 54.7063 4.47154 54.7063 5.46H55.1063C55.1063 4.42179 54.9082 3.53283 54.5009 2.80259L54.1516 2.99741ZM54.7063 5.46V11H55.1063V5.46H54.7063ZM54.9063 10.8H53.0063V11.2H54.9063V10.8ZM53.2063 11V5.5H52.8063V11H53.2063ZM53.2063 5.5C53.2063 4.57813 52.9324 3.82331 52.3677 3.25858L52.0848 3.54142C52.5601 4.01669 52.8063 4.66187 52.8063 5.5H53.2063ZM52.3677 3.25858C51.8074 2.69827 51.1019 2.42 50.2663 2.42V2.82C51.004 2.82 51.6051 3.06173 52.0848 3.54142L52.3677 3.25858ZM50.2663 2.42C49.6588 2.42 49.1141 2.56884 48.6389 2.87127L48.8536 3.20873C49.2584 2.95116 49.727 2.82 50.2663 2.82V2.42ZM48.6403 2.8704C48.1817 3.157 47.8241 3.55126 47.5684 4.04853L47.9241 4.23147C48.1484 3.7954 48.4575 3.45633 48.8523 3.2096L48.6403 2.8704ZM47.5663 4.05262C47.3257 4.54798 47.2063 5.08473 47.2063 5.66H47.6063C47.6063 5.14194 47.7134 4.66536 47.9262 4.22738L47.5663 4.05262ZM47.2063 5.66V11H47.6063V5.66H47.2063ZM47.4063 10.8H45.5063V11.2H47.4063V10.8ZM45.7063 11V1H45.3063V11H45.7063ZM45.5063 1.2H47.3063V0.8H45.5063V1.2ZM47.1063 1V2.6H47.5063V1H47.1063ZM47.4714 2.71279C47.8274 2.19149 48.2777 1.77941 48.8237 1.47464L48.6288 1.12536C48.0282 1.46058 47.5317 1.91518 47.1411 2.48721L47.4714 2.71279ZM48.8251 1.47389C49.382 1.15745 49.9747 0.999999 50.6063 0.999999V0.599999C49.9045 0.599999 49.2438 0.77588 48.6274 1.12611L48.8251 1.47389ZM10.7 19H10.9V18.8H10.7V19ZM10.7 29V29.2H10.9V29H10.7ZM8.8 29H8.6V29.2H8.8V29ZM8.8 27.5H9V26.9154L8.64192 27.3775L8.8 27.5ZM7.3 28.76L7.38946 28.9389L7.39265 28.9372L7.3 28.76ZM3.02 28.54L2.91343 28.7093L2.91571 28.7107L3.02 28.54ZM1.32 26.68L1.14295 26.773L1.14295 26.773L1.32 26.68ZM1.32 21.32L1.49705 21.413L1.49705 21.413L1.32 21.32ZM3.02 19.48L3.1243 19.6507L3.12656 19.6492L3.02 19.48ZM7.36 19.28L7.45412 19.1035L7.45412 19.1035L7.36 19.28ZM8.9 20.62L8.73955 20.7394L9.1 21.2238V20.62H8.9ZM8.9 19V18.8H8.7V19H8.9ZM7.34 27L7.23571 26.8293L7.23571 26.8293L7.34 27ZM8.46 25.78L8.63797 25.8713L8.63889 25.8694L8.46 25.78ZM8.46 22.24L8.28111 22.3294L8.28204 22.3313L8.46 22.24ZM7.34 21L7.23571 21.1707L7.23571 21.1707L7.34 21ZM4.16 21L4.26643 21.1693L4.26643 21.1693L4.16 21ZM3.06 22.24L3.23797 22.3313L3.23889 22.3294L3.06 22.24ZM3.06 25.78L2.88111 25.8694L2.88204 25.8713L3.06 25.78ZM4.16 27L4.05357 27.1693L4.05357 27.1693L4.16 27ZM10.5 19V29H10.9V19H10.5ZM10.7 28.8H8.8V29.2H10.7V28.8ZM9 29V27.5H8.6V29H9ZM8.64192 27.3775C8.24585 27.8885 7.76802 28.2897 7.20735 28.5828L7.39265 28.9372C8.00531 28.617 8.52748 28.1781 8.95808 27.6225L8.64192 27.3775ZM7.21056 28.5811C6.65213 28.8603 6.05615 29 5.42 29V29.4C6.11719 29.4 6.77454 29.2463 7.38944 28.9389L7.21056 28.5811ZM5.42 29C4.57515 29 3.81151 28.7893 3.12429 28.3693L2.91571 28.7107C3.66849 29.1707 4.50485 29.4 5.42 29.4V29ZM3.12656 28.3708C2.43771 27.937 1.89476 27.3439 1.49705 26.587L1.14295 26.773C1.5719 27.5894 2.16229 28.2363 2.91344 28.7092L3.12656 28.3708ZM1.49705 26.587C1.10059 25.8324 0.9 24.9717 0.9 24H0.5C0.5 25.0283 0.71274 25.9542 1.14295 26.773L1.49705 26.587ZM0.9 24C0.9 23.0283 1.10059 22.1676 1.49705 21.413L1.14295 21.227C0.71274 22.0458 0.5 22.9717 0.5 24H0.9ZM1.49705 21.413C1.89451 20.6566 2.43677 20.0708 3.12429 19.6507L2.91571 19.3093C2.16323 19.7692 1.57215 20.4101 1.14295 21.227L1.49705 21.413ZM3.12656 19.6492C3.81352 19.2167 4.57635 19 5.42 19V18.6C4.50365 18.6 3.66648 18.8366 2.91344 19.3108L3.12656 19.6492ZM5.42 19C6.08118 19 6.69543 19.1522 7.26588 19.4565L7.45412 19.1035C6.82457 18.7678 6.14549 18.6 5.42 18.6V19ZM7.26588 19.4565C7.8385 19.7619 8.32959 20.1885 8.73955 20.7394L9.06045 20.5006C8.61707 19.9048 8.0815 19.4381 7.45412 19.1035L7.26588 19.4565ZM9.1 20.62V19H8.7V20.62H9.1ZM8.9 19.2H10.7V18.8H8.9V19.2ZM5.74 27.64C6.36181 27.64 6.93151 27.484 7.44429 27.1707L7.23571 26.8293C6.78849 27.1026 6.29152 27.24 5.74 27.24V27.64ZM7.44429 27.1707C7.95694 26.8574 8.35519 26.4227 8.63796 25.8713L8.28204 25.6887C8.03147 26.1773 7.68306 26.556 7.23571 26.8293L7.44429 27.1707ZM8.63889 25.8694C8.92073 25.3058 9.06 24.6814 9.06 24H8.66C8.66 24.6253 8.53261 25.1876 8.28111 25.6906L8.63889 25.8694ZM9.06 24C9.06 23.3187 8.92075 22.7002 8.63796 22.1487L8.28204 22.3313C8.53258 22.8198 8.66 23.3746 8.66 24H9.06ZM8.63889 22.1506C8.35651 21.5858 7.95822 21.1434 7.44429 20.8293L7.23571 21.1707C7.68178 21.4433 8.03016 21.8275 8.28111 22.3294L8.63889 22.1506ZM7.44429 20.8293C6.93151 20.516 6.36181 20.36 5.74 20.36V20.76C6.29152 20.76 6.78849 20.8974 7.23571 21.1707L7.44429 20.8293ZM5.74 20.36C5.11821 20.36 4.55419 20.516 4.05357 20.8307L4.26643 21.1693C4.69914 20.8973 5.18846 20.76 5.74 20.76V20.36ZM4.05357 20.8307C3.55336 21.1451 3.16277 21.5872 2.88111 22.1506L3.23889 22.3294C3.49056 21.8261 3.83331 21.4416 4.26643 21.1693L4.05357 20.8307ZM2.88204 22.1487C2.59925 22.7002 2.46 23.3187 2.46 24H2.86C2.86 23.3746 2.98742 22.8198 3.23796 22.3313L2.88204 22.1487ZM2.46 24C2.46 24.6814 2.59927 25.3058 2.88111 25.8694L3.23889 25.6906C2.98739 25.1876 2.86 24.6253 2.86 24H2.46ZM2.88204 25.8713C3.16407 26.4212 3.55463 26.8557 4.05357 27.1693L4.26643 26.8307C3.83204 26.5576 3.48926 26.1788 3.23796 25.6887L2.88204 25.8713ZM4.05357 27.1693C4.55419 27.484 5.11821 27.64 5.74 27.64V27.24C5.18846 27.24 4.69914 27.1027 4.26643 26.8307L4.05357 27.1693ZM22.9047 19H23.1047V18.8H22.9047V19ZM22.9047 29V29.2H23.1047V29H22.9047ZM13.9047 29H13.7047V29.2H13.9047V29ZM13.9047 19V18.8H13.7047V19H13.9047ZM15.8047 19H16.0047V18.8H15.8047V19ZM15.8047 27.2H15.6047V27.4H15.8047V27.2ZM21.0047 27.2V27.4H21.2047V27.2H21.0047ZM21.0047 19V18.8H20.8047V19H21.0047ZM22.7047 19V29H23.1047V19H22.7047ZM22.9047 28.8H13.9047V29.2H22.9047V28.8ZM14.1047 29V19H13.7047V29H14.1047ZM13.9047 19.2H15.8047V18.8H13.9047V19.2ZM15.6047 19V27.2H16.0047V19H15.6047ZM15.8047 27.4H21.0047V27H15.8047V27.4ZM21.2047 27.2V19H20.8047V27.2H21.2047ZM21.0047 19.2H22.9047V18.8H21.0047V19.2ZM28.6117 20.8V20.6H28.4117V20.8H28.6117ZM28.6117 27.2H28.4117V27.4H28.6117V27.2ZM31.2117 27.2H31.4117V27H31.2117V27.2ZM31.2117 29V29.2H31.4117V29H31.2117ZM26.7117 29H26.5117V29.2H26.7117V29ZM26.7117 20.8H26.9117V20.6H26.7117V20.8ZM24.7117 20.8H24.5117V21H24.7117V20.8ZM24.7117 19V18.8H24.5117V19H24.7117ZM26.7117 19V19.2H26.9117V19H26.7117ZM26.7117 16.4V16.2H26.5117V16.4H26.7117ZM28.6117 16.4H28.8117V16.2H28.6117V16.4ZM28.6117 19H28.4117V19.2H28.6117V19ZM31.4117 19H31.6117V18.8H31.4117V19ZM31.4117 20.8V21H31.6117V20.8H31.4117ZM28.4117 20.8V27.2H28.8117V20.8H28.4117ZM28.6117 27.4H31.2117V27H28.6117V27.4ZM31.0117 27.2V29H31.4117V27.2H31.0117ZM31.2117 28.8H26.7117V29.2H31.2117V28.8ZM26.9117 29V20.8H26.5117V29H26.9117ZM26.7117 20.6H24.7117V21H26.7117V20.6ZM24.9117 20.8V19H24.5117V20.8H24.9117ZM24.7117 19.2H26.7117V18.8H24.7117V19.2ZM26.9117 19V16.4H26.5117V19H26.9117ZM26.7117 16.6H28.6117V16.2H26.7117V16.6ZM28.4117 16.4V19H28.8117V16.4H28.4117ZM28.6117 19.2H31.4117V18.8H28.6117V19.2ZM31.2117 19V20.8H31.6117V19H31.2117ZM31.4117 20.6H28.6117V21H31.4117V20.6ZM35.1364 28.52L35.0369 28.6935L35.039 28.6947L35.1364 28.52ZM33.2164 26.64L33.0436 26.7408L33.0444 26.742L33.2164 26.64ZM33.2164 21.38L33.3884 21.482L33.3892 21.4808L33.2164 21.38ZM35.1364 19.5L35.2338 19.6747L35.2359 19.6735L35.1364 19.5ZM40.4964 19.5L40.3956 19.6728L40.399 19.6747L40.4964 19.5ZM42.4164 21.38L42.2436 21.4808L42.2444 21.482L42.4164 21.38ZM42.4164 26.64L42.5884 26.742L42.5892 26.7408L42.4164 26.64ZM40.4964 28.52L40.595 28.694L40.5959 28.6935L40.4964 28.52ZM39.5164 27L39.6166 27.1731L39.62 27.1711L39.5164 27ZM40.7164 25.76L40.8906 25.8583L40.8916 25.8564L40.7164 25.76ZM40.7164 22.26L40.5412 22.3564L40.5422 22.3583L40.7164 22.26ZM39.5164 21.02L39.4128 21.1911L39.4162 21.1931L39.5164 21.02ZM36.1164 21.02L36.2166 21.1931L36.218 21.1923L36.1164 21.02ZM34.9164 22.26L35.0906 22.3583L35.0916 22.3564L34.9164 22.26ZM34.9164 25.76L34.7412 25.8564L34.7422 25.8583L34.9164 25.76ZM36.1164 27L36.0128 27.1712L36.0181 27.1742L36.1164 27ZM37.8364 29C36.8817 29 36.0156 28.781 35.2338 28.3453L35.039 28.6947C35.8839 29.1656 36.8178 29.4 37.8364 29.4V29ZM35.2359 28.3465C34.4517 27.8966 33.837 27.2942 33.3884 26.538L33.0444 26.742C33.5291 27.5591 34.1944 28.2101 35.0369 28.6935L35.2359 28.3465ZM33.3892 26.5392C32.941 25.771 32.7164 24.9259 32.7164 24H32.3164C32.3164 24.9941 32.5585 25.909 33.0437 26.7408L33.3892 26.5392ZM32.7164 24C32.7164 23.0741 32.941 22.2363 33.3884 21.482L33.0444 21.278C32.5585 22.0971 32.3164 23.0059 32.3164 24H32.7164ZM33.3892 21.4808C33.8377 20.7119 34.4516 20.1107 35.2338 19.6747L35.039 19.3253C34.1946 19.796 33.5285 20.4481 33.0437 21.2792L33.3892 21.4808ZM35.2359 19.6735C36.0174 19.2251 36.8828 19 37.8364 19V18.6C36.8167 18.6 35.8821 18.8416 35.0369 19.3265L35.2359 19.6735ZM37.8364 19C38.7762 19 39.6278 19.2249 40.3956 19.6728L40.5972 19.3272C39.765 18.8418 38.8433 18.6 37.8364 18.6V19ZM40.399 19.6747C41.1813 20.1107 41.7951 20.7119 42.2437 21.4808L42.5892 21.2792C42.1043 20.4481 41.4382 19.796 40.5938 19.3253L40.399 19.6747ZM42.2444 21.482C42.6918 22.2363 42.9164 23.0741 42.9164 24H43.3164C43.3164 23.0059 43.0743 22.0971 42.5884 21.278L42.2444 21.482ZM42.9164 24C42.9164 24.9259 42.6918 25.771 42.2437 26.5392L42.5892 26.7408C43.0743 25.909 43.3164 24.9941 43.3164 24H42.9164ZM42.2444 26.538C41.7958 27.2942 41.1811 27.8966 40.3969 28.3465L40.5959 28.6935C41.4384 28.2101 42.1037 27.5591 42.5884 26.742L42.2444 26.538ZM40.3978 28.346C39.6296 28.7813 38.7773 29 37.8364 29V29.4C38.8422 29.4 39.7632 29.1654 40.595 28.694L40.3978 28.346ZM37.8364 27.64C38.4832 27.64 39.078 27.4849 39.6166 27.1731L39.4162 26.8269C38.9415 27.1018 38.4163 27.24 37.8364 27.24V27.64ZM39.62 27.1711C40.1563 26.8465 40.5805 26.408 40.8906 25.8583L40.5422 25.6617C40.2656 26.152 39.8899 26.5402 39.4128 26.8289L39.62 27.1711ZM40.8916 25.8564C41.2021 25.292 41.3564 24.6719 41.3564 24H40.9564C40.9564 24.6081 40.8174 25.1613 40.5412 25.6636L40.8916 25.8564ZM41.3564 24C41.3564 23.3281 41.2021 22.7139 40.8906 22.1617L40.5422 22.3583C40.8174 22.8461 40.9564 23.3919 40.9564 24H41.3564ZM40.8916 22.1636C40.5815 21.5997 40.1561 21.1592 39.6166 20.8469L39.4162 21.1931C39.89 21.4674 40.2647 21.8536 40.5412 22.3564L40.8916 22.1636ZM39.62 20.8489C39.0809 20.5226 38.4849 20.36 37.8364 20.36V20.76C38.4146 20.76 38.9386 20.904 39.4128 21.1911L39.62 20.8489ZM37.8364 20.36C37.1754 20.36 36.5668 20.5222 36.0148 20.8477L36.218 21.1923C36.706 20.9045 37.2441 20.76 37.8364 20.76V20.36ZM36.0162 20.8469C35.4767 21.1592 35.0513 21.5997 34.7412 22.1636L35.0916 22.3564C35.3682 21.8536 35.7428 21.4674 36.2166 21.1931L36.0162 20.8469ZM34.7422 22.1617C34.4307 22.7139 34.2764 23.3281 34.2764 24H34.6764C34.6764 23.3919 34.8154 22.8461 35.0906 22.3583L34.7422 22.1617ZM34.2764 24C34.2764 24.6719 34.4307 25.292 34.7412 25.8564L35.0916 25.6636C34.8154 25.1613 34.6764 24.6081 34.6764 24H34.2764ZM34.7422 25.8583C35.0523 26.408 35.4765 26.8465 36.0128 27.1711L36.22 26.8289C35.743 26.5402 35.3672 26.152 35.0906 25.6617L34.7422 25.8583ZM36.0181 27.1742C36.5696 27.4853 37.1771 27.64 37.8364 27.64V27.24C37.2424 27.24 36.7032 27.1014 36.2147 26.8258L36.0181 27.1742ZM47.8109 20.8V20.6H47.6109V20.8H47.8109ZM47.8109 27.2H47.6109V27.4H47.8109V27.2ZM50.4109 27.2H50.6109V27H50.4109V27.2ZM50.4109 29V29.2H50.6109V29H50.4109ZM45.9109 29H45.7109V29.2H45.9109V29ZM45.9109 20.8H46.1109V20.6H45.9109V20.8ZM43.9109 20.8H43.7109V21H43.9109V20.8ZM43.9109 19V18.8H43.7109V19H43.9109ZM45.9109 19V19.2H46.1109V19H45.9109ZM45.9109 16.4V16.2H45.7109V16.4H45.9109ZM47.8109 16.4H48.0109V16.2H47.8109V16.4ZM47.8109 19H47.6109V19.2H47.8109V19ZM50.6109 19H50.8109V18.8H50.6109V19ZM50.6109 20.8V21H50.8109V20.8H50.6109ZM47.6109 20.8V27.2H48.0109V20.8H47.6109ZM47.8109 27.4H50.4109V27H47.8109V27.4ZM50.2109 27.2V29H50.6109V27.2H50.2109ZM50.4109 28.8H45.9109V29.2H50.4109V28.8ZM46.1109 29V20.8H45.7109V29H46.1109ZM45.9109 20.6H43.9109V21H45.9109V20.6ZM44.1109 20.8V19H43.7109V20.8H44.1109ZM43.9109 19.2H45.9109V18.8H43.9109V19.2ZM46.1109 19V16.4H45.7109V19H46.1109ZM45.9109 16.6H47.8109V16.2H45.9109V16.6ZM47.6109 16.4V19H48.0109V16.4H47.6109ZM47.8109 19.2H50.6109V18.8H47.8109V19.2ZM50.4109 19V20.8H50.8109V19H50.4109ZM50.6109 20.6H47.8109V21H50.6109V20.6ZM59.5156 19.46L59.4154 19.6331L59.4167 19.6338L59.5156 19.46ZM61.2956 21.34L61.1173 21.4306L61.1179 21.4318L61.2956 21.34ZM61.8956 24.78V24.98H62.0766L62.0946 24.7999L61.8956 24.78ZM53.6956 24.78V24.58H53.4582L53.4985 24.814L53.6956 24.78ZM54.7756 26.7L54.6449 26.8514L54.6486 26.8545L54.7756 26.7ZM59.6156 26.02V25.82H59.5002L59.4424 25.92L59.6156 26.02ZM61.5756 26.02L61.7648 26.0849L61.8556 25.82H61.5756V26.02ZM59.7956 28.32L59.9077 28.4856L59.9095 28.4844L59.7956 28.32ZM54.2156 28.54L54.1158 28.7133L54.118 28.7146L54.2156 28.54ZM52.3756 26.68L52.2004 26.7764L52.2011 26.7776L52.3756 26.68ZM52.3756 21.34L52.5502 21.4376L52.5509 21.4364L52.3756 21.34ZM54.1956 19.48L54.2945 19.6538L54.2955 19.6533L54.1956 19.48ZM54.7556 21.22L54.6252 21.0684L54.6234 21.0699L54.7556 21.22ZM53.7156 23.12L53.5185 23.086L53.4782 23.32H53.7156V23.12ZM59.8556 23.12V23.32H60.0766L60.0546 23.1001L59.8556 23.12ZM58.8756 21.2L58.7455 21.3519L58.7472 21.3534L58.8756 21.2ZM56.8356 19C57.8331 19 58.6907 19.2135 59.4154 19.6331L59.6158 19.2869C58.8206 18.8265 57.8915 18.6 56.8356 18.6V19ZM59.4167 19.6338C60.1551 20.0539 60.7213 20.6513 61.1173 21.4306L61.4739 21.2494C61.0433 20.4021 60.4228 19.7461 59.6145 19.2862L59.4167 19.6338ZM61.1179 21.4318C61.514 22.1983 61.7156 23.1056 61.7156 24.16H62.1156C62.1156 23.0544 61.904 22.0817 61.4733 21.2482L61.1179 21.4318ZM61.7156 24.16C61.7156 24.4389 61.7089 24.6372 61.6966 24.7601L62.0946 24.7999C62.109 24.6561 62.1156 24.4411 62.1156 24.16H61.7156ZM61.8956 24.58H53.6956V24.98H61.8956V24.58ZM53.4985 24.814C53.6396 25.6323 54.0227 26.314 54.6449 26.8514L54.9063 26.5486C54.3552 26.0726 54.0183 25.4743 53.8927 24.746L53.4985 24.814ZM54.6486 26.8545C55.2849 27.3777 56.0233 27.64 56.8556 27.64V27.24C56.1146 27.24 55.4664 27.009 54.9026 26.5455L54.6486 26.8545ZM56.8556 27.64C58.2049 27.64 59.1993 27.1409 59.7888 26.12L59.4424 25.92C58.9386 26.7924 58.093 27.24 56.8556 27.24V27.64ZM59.6156 26.22H61.5756V25.82H59.6156V26.22ZM61.3864 25.9551C61.0813 26.8453 60.5159 27.5781 59.6818 28.1556L59.9095 28.4844C60.8087 27.8619 61.43 27.0614 61.7648 26.0849L61.3864 25.9551ZM59.6835 28.1544C58.8515 28.7176 57.9109 29 56.8556 29V29.4C57.987 29.4 59.0064 29.0957 59.9077 28.4856L59.6835 28.1544ZM56.8556 29C55.9137 29 55.0677 28.7874 54.3133 28.3654L54.118 28.7146C54.9369 29.1726 55.8509 29.4 56.8556 29.4V29ZM54.3155 28.3667C53.5598 27.9313 52.9724 27.3373 52.5502 26.5824L52.2011 26.7776C52.6588 27.596 53.2981 28.2421 54.1158 28.7133L54.3155 28.3667ZM52.5509 26.5836C52.1284 25.8155 51.9156 24.9558 51.9156 24H51.5156C51.5156 25.0176 51.7428 25.9445 52.2004 26.7764L52.5509 26.5836ZM51.9156 24C51.9156 23.0442 52.1284 22.1917 52.5502 21.4376L52.2011 21.2424C51.7428 22.0616 51.5156 22.9825 51.5156 24H51.9156ZM52.5509 21.4364C52.9736 20.6679 53.5542 20.0751 54.2945 19.6538L54.0967 19.3062C53.2904 19.7649 52.6577 20.4121 52.2004 21.2436L52.5509 21.4364ZM54.2955 19.6533C55.0496 19.2187 55.8947 19 56.8356 19V18.6C55.8299 18.6 54.915 18.8346 54.0958 19.3067L54.2955 19.6533ZM56.7956 20.28C55.9632 20.28 55.2364 20.5425 54.6252 21.0684L54.8861 21.3716C55.4216 20.9108 56.0547 20.68 56.7956 20.68V20.28ZM54.6234 21.0699C54.0273 21.5951 53.6592 22.2702 53.5185 23.086L53.9127 23.154C54.0387 22.4231 54.3639 21.8316 54.8878 21.3701L54.6234 21.0699ZM53.7156 23.32H59.8556V22.92H53.7156V23.32ZM60.0546 23.1001C59.9699 22.2524 59.6206 21.5629 59.004 21.0466L58.7472 21.3534C59.2773 21.7971 59.5814 22.3876 59.6566 23.1399L60.0546 23.1001ZM59.0058 21.0481C58.4051 20.5333 57.6639 20.28 56.7956 20.28V20.68C57.5807 20.68 58.2261 20.9067 58.7455 21.3519L59.0058 21.0481ZM67.9372 24.9L68.0967 24.7794L68.0367 24.7H67.9372V24.9ZM66.1172 24.9V24.7H65.9172V24.9H66.1172ZM66.1172 29V29.2H66.3172V29H66.1172ZM64.2172 29H64.0172V29.2H64.2172V29ZM64.2172 14.9V14.7H64.0172V14.9H64.2172ZM66.1172 14.9H66.3172V14.7H66.1172V14.9ZM66.1172 23.1H65.9172V23.3H66.1172V23.1ZM67.8972 23.1V23.3H67.9967L68.0567 23.2206L67.8972 23.1ZM70.9972 19V18.8H70.8977L70.8377 18.8794L70.9972 19ZM73.0972 19L73.2563 19.1211L73.5008 18.8H73.0972V19ZM69.3972 23.86L69.2381 23.7389L69.1455 23.8604L69.2385 23.9817L69.3972 23.86ZM73.3372 29V29.2H73.7425L73.4959 28.8783L73.3372 29ZM71.0372 29L70.8777 29.1206L70.9377 29.2H71.0372V29ZM67.9372 24.7H66.1172V25.1H67.9372V24.7ZM65.9172 24.9V29H66.3172V24.9H65.9172ZM66.1172 28.8H64.2172V29.2H66.1172V28.8ZM64.4172 29V14.9H64.0172V29H64.4172ZM64.2172 15.1H66.1172V14.7H64.2172V15.1ZM65.9172 14.9V23.1H66.3172V14.9H65.9172ZM66.1172 23.3H67.8972V22.9H66.1172V23.3ZM68.0567 23.2206L71.1567 19.1206L70.8377 18.8794L67.7377 22.9794L68.0567 23.2206ZM70.9972 19.2H73.0972V18.8H70.9972V19.2ZM72.9381 18.8789L69.2381 23.7389L69.5563 23.9811L73.2563 19.1211L72.9381 18.8789ZM69.2385 23.9817L73.1785 29.1217L73.4959 28.8783L69.5559 23.7383L69.2385 23.9817ZM73.3372 28.8H71.0372V29.2H73.3372V28.8ZM71.1967 28.8794L68.0967 24.7794L67.7777 25.0206L70.8777 29.1206L71.1967 28.8794ZM83.9031 19H84.1031V18.8H83.9031V19ZM83.9031 29V29.2H84.1031V29H83.9031ZM82.0031 29H81.8031V29.2H82.0031V29ZM82.0031 27.5H82.2031V26.9154L81.845 27.3775L82.0031 27.5ZM80.5031 28.76L80.5926 28.9389L80.5958 28.9372L80.5031 28.76ZM76.2231 28.54L76.1166 28.7093L76.1188 28.7107L76.2231 28.54ZM74.5231 26.68L74.3461 26.773L74.3461 26.773L74.5231 26.68ZM74.5231 21.32L74.7002 21.413L74.7002 21.413L74.5231 21.32ZM76.2231 19.48L76.3274 19.6507L76.3297 19.6492L76.2231 19.48ZM80.5631 19.28L80.6572 19.1035L80.6572 19.1035L80.5631 19.28ZM82.1031 20.62L81.9427 20.7394L82.3031 21.2238V20.62H82.1031ZM82.1031 19V18.8H81.9031V19H82.1031ZM80.5431 27L80.4388 26.8293L80.4388 26.8293L80.5431 27ZM81.6631 25.78L81.8411 25.8713L81.842 25.8694L81.6631 25.78ZM81.6631 22.24L81.4842 22.3294L81.4852 22.3313L81.6631 22.24ZM80.5431 21L80.4388 21.1707L80.4388 21.1707L80.5431 21ZM77.3631 21L77.4696 21.1693L77.4696 21.1693L77.3631 21ZM76.2631 22.24L76.4411 22.3313L76.442 22.3294L76.2631 22.24ZM76.2631 25.78L76.0842 25.8694L76.0852 25.8713L76.2631 25.78ZM77.3631 27L77.2567 27.1693L77.2567 27.1693L77.3631 27ZM83.7031 19V29H84.1031V19H83.7031ZM83.9031 28.8H82.0031V29.2H83.9031V28.8ZM82.2031 29V27.5H81.8031V29H82.2031ZM81.845 27.3775C81.449 27.8885 80.9711 28.2897 80.4105 28.5828L80.5958 28.9372C81.2084 28.617 81.7306 28.1781 82.1612 27.6225L81.845 27.3775ZM80.4137 28.5811C79.8553 28.8603 79.2593 29 78.6231 29V29.4C79.3203 29.4 79.9777 29.2463 80.5926 28.9389L80.4137 28.5811ZM78.6231 29C77.7783 29 77.0146 28.7893 76.3274 28.3693L76.1188 28.7107C76.8716 29.1707 77.708 29.4 78.6231 29.4V29ZM76.3297 28.3708C75.6408 27.937 75.0979 27.3439 74.7002 26.587L74.3461 26.773C74.775 27.5894 75.3654 28.2363 76.1166 28.7092L76.3297 28.3708ZM74.7002 26.587C74.3037 25.8324 74.1031 24.9717 74.1031 24H73.7031C73.7031 25.0283 73.9159 25.9542 74.3461 26.773L74.7002 26.587ZM74.1031 24C74.1031 23.0283 74.3037 22.1676 74.7002 21.413L74.3461 21.227C73.9159 22.0458 73.7031 22.9717 73.7031 24H74.1031ZM74.7002 21.413C75.0976 20.6566 75.6399 20.0708 76.3274 19.6507L76.1188 19.3093C75.3664 19.7692 74.7753 20.4101 74.3461 21.227L74.7002 21.413ZM76.3297 19.6492C77.0166 19.2167 77.7795 19 78.6231 19V18.6C77.7068 18.6 76.8696 18.8366 76.1166 19.3108L76.3297 19.6492ZM78.6231 19C79.2843 19 79.8986 19.1522 80.469 19.4565L80.6572 19.1035C80.0277 18.7678 79.3486 18.6 78.6231 18.6V19ZM80.469 19.4565C81.0416 19.7619 81.5327 20.1885 81.9427 20.7394L82.2636 20.5006C81.8202 19.9048 81.2846 19.4381 80.6572 19.1035L80.469 19.4565ZM82.3031 20.62V19H81.9031V20.62H82.3031ZM82.1031 19.2H83.9031V18.8H82.1031V19.2ZM78.9431 27.64C79.5649 27.64 80.1346 27.484 80.6474 27.1707L80.4388 26.8293C79.9916 27.1026 79.4946 27.24 78.9431 27.24V27.64ZM80.6474 27.1707C81.1601 26.8574 81.5583 26.4227 81.8411 25.8713L81.4852 25.6887C81.2346 26.1773 80.8862 26.556 80.4388 26.8293L80.6474 27.1707ZM81.842 25.8694C82.1239 25.3058 82.2631 24.6814 82.2631 24H81.8631C81.8631 24.6253 81.7357 25.1876 81.4842 25.6906L81.842 25.8694ZM82.2631 24C82.2631 23.3187 82.1239 22.7002 81.8411 22.1487L81.4852 22.3313C81.7357 22.8198 81.8631 23.3746 81.8631 24H82.2631ZM81.842 22.1506C81.5596 21.5858 81.1613 21.1434 80.6474 20.8293L80.4388 21.1707C80.8849 21.4433 81.2333 21.8275 81.4842 22.3294L81.842 22.1506ZM80.6474 20.8293C80.1346 20.516 79.5649 20.36 78.9431 20.36V20.76C79.4946 20.76 79.9916 20.8974 80.4388 21.1707L80.6474 20.8293ZM78.9431 20.36C78.3213 20.36 77.7573 20.516 77.2567 20.8307L77.4696 21.1693C77.9023 20.8973 78.3916 20.76 78.9431 20.76V20.36ZM77.2567 20.8307C76.7565 21.1451 76.3659 21.5872 76.0842 22.1506L76.442 22.3294C76.6937 21.8261 77.0364 21.4416 77.4696 21.1693L77.2567 20.8307ZM76.0852 22.1487C75.8024 22.7002 75.6631 23.3187 75.6631 24H76.0631C76.0631 23.3746 76.1905 22.8198 76.4411 22.3313L76.0852 22.1487ZM75.6631 24C75.6631 24.6814 75.8024 25.3058 76.0842 25.8694L76.442 25.6906C76.1905 25.1876 76.0631 24.6253 76.0631 24H75.6631ZM76.0852 25.8713C76.3672 26.4212 76.7578 26.8557 77.2567 27.1693L77.4696 26.8307C77.0352 26.5576 76.6924 26.1788 76.4411 25.6887L76.0852 25.8713ZM77.2567 27.1693C77.7573 27.484 78.3213 27.64 78.9431 27.64V27.24C78.3916 27.24 77.9023 27.1027 77.4696 26.8307L77.2567 27.1693Z" fill="#2DFFB5" mask="url(#path-1-outside-1_241_7)"/>
</svg>
