<svg width="40" height="40" viewBox="0 0 40 40" fill="none" xmlns="http://www.w3.org/2000/svg">
<mask id="mask0_242_8" style="mask-type:alpha" maskUnits="userSpaceOnUse" x="0" y="0" width="40" height="40">
<rect width="40" height="40" fill="#D9D9D9"/>
</mask>
<g mask="url(#mask0_242_8)">
<path d="M36.6667 31.875L33.3333 28.5417V11.6667H26.5833L23.5417 8.33334H16.4583L14.875 10.0833L12.5 7.70834L15 5H25L28.0833 8.33334H36.6667V31.875ZM3.33333 35V8.33334H8.375L11.7083 11.6667H6.66667V31.6667H31.7083L35.0417 35H3.33333ZM26.0833 26.0417C25.3889 26.9861 24.5208 27.7431 23.4792 28.3125C22.4375 28.8819 21.2778 29.1667 20 29.1667C17.9167 29.1667 16.1458 28.4375 14.6875 26.9792C13.2292 25.5208 12.5 23.75 12.5 21.6667C12.5 20.3889 12.7847 19.2292 13.3542 18.1875C13.9236 17.1458 14.6806 16.2778 15.625 15.5833L18.0417 18C17.375 18.3611 16.8403 18.8611 16.4375 19.5C16.0347 20.1389 15.8333 20.8611 15.8333 21.6667C15.8333 22.8333 16.2361 23.8194 17.0417 24.625C17.8472 25.4306 18.8333 25.8333 20 25.8333C20.8056 25.8333 21.5278 25.6319 22.1667 25.2292C22.8056 24.8264 23.3056 24.2917 23.6667 23.625L26.0833 26.0417ZM25.3333 16.3333C26.0278 17 26.5625 17.7917 26.9375 18.7083C27.3125 19.625 27.5 20.6111 27.5 21.6667V22.1667C27.5 22.3333 27.4861 22.5 27.4583 22.6667L19 14.2083C19.1667 14.1806 19.3333 14.1667 19.5 14.1667H20C21.0556 14.1667 22.0417 14.3542 22.9583 14.7292C23.875 15.1042 24.6667 15.6389 25.3333 16.3333ZM34.125 38.8333L1.125 5.83334L3.5 3.45834L36.5 36.4583L34.125 38.8333Z" fill="white"/>
</g>
</svg>
