<svg width="24" height="24" viewBox="0 0 24 24" fill="none" xmlns="http://www.w3.org/2000/svg">
<path fill-rule="evenodd" clip-rule="evenodd" d="M2.5068 10.6207C8.03559 8.21191 11.7223 6.62388 13.567 5.85663C18.8338 3.66595 19.9283 3.2854 20.6416 3.27284C20.7985 3.27008 21.1493 3.30896 21.3765 3.49334C21.5683 3.64902 21.6211 3.85933 21.6464 4.00694C21.6717 4.15455 21.7031 4.49081 21.6781 4.75354C21.3927 7.75241 20.1577 15.0299 19.5294 18.3887C19.2636 19.8099 18.7401 20.2864 18.2333 20.3331C17.132 20.4344 16.2957 19.6052 15.2289 18.906C13.5597 17.8118 12.6168 17.1307 10.9965 16.0629C9.12404 14.829 10.3379 14.1508 11.405 13.0425C11.6843 12.7524 16.5369 8.33859 16.6308 7.93819C16.6425 7.88812 16.6534 7.70145 16.5425 7.60289C16.4316 7.50432 16.268 7.53803 16.1499 7.56484C15.9824 7.60283 13.3159 9.36533 8.15017 12.8523C7.39328 13.3721 6.70771 13.6253 6.09346 13.612C5.4163 13.5974 4.11371 13.2292 3.14537 12.9144C1.95767 12.5283 1.0137 12.3242 1.0959 11.6685C1.13872 11.327 1.60902 10.9777 2.5068 10.6207Z" fill="#EBEBEB"/>
</svg>
